<svg xmlns="http://www.w3.org/2000/svg" xmlns:xlink="http://www.w3.org/1999/xlink" xmlns:lucid="lucid" width="1760" height="1360"><g transform="translate(0 0)" lucid:page-tab-id="m-5o7ONTd-nK"><path d="M0 0h1760v1360H0z" fill="#fff"/><path d="M84.78 558.15v-240h70.6v240z" stroke="#b2b2b2" stroke-width="2" fill="#4397ff"/><path d="M84.78 558.15h70.6v240H84.8z" stroke="#b2b2b2" stroke-width="2" fill="#ff8839"/><path d="M84.78 798.15h70.6v240H84.8z" stroke="#b2b2b2" stroke-width="2" fill="#3fb8b9"/><path d="M155.4 1280H84.76v-241.85h70.62z" stroke="#b2b2b2" stroke-width="2" fill="#1071e5"/><path d="M155.4 318.15h1547.63v240H155.4zM155.4 558.15h1547.63v240H155.4zM155.4 798.15h1547.63v240H155.4zM1703.03 1038.15V1280H155.4v-241.85z" stroke="#b2b2b2" stroke-width="2" fill="none"/><use xlink:href="#a" transform="matrix(-1.8369701987210297e-16,-1,1,-1.8369701987210297e-16,84.77493057797045,558.149148197312) translate(27.503759190362302 40.134467180441135)"/><use xlink:href="#b" transform="matrix(-1.8369701987210297e-16,-1,1,-1.8369701987210297e-16,84.77493057797045,558.149148197312) translate(84.01851175185284 40.134467180441135)"/><use xlink:href="#c" transform="matrix(-1.8369701987210297e-16,-1,1,-1.8369701987210297e-16,84.7749305779704,798.1491481973119) translate(38.47843494404583 26.231065639117723)"/><use xlink:href="#d" transform="matrix(-1.8369701987210297e-16,-1,1,-1.8369701987210297e-16,84.7749305779704,798.1491481973119) translate(111.66439583517878 26.231065639117723)"/><use xlink:href="#e" transform="matrix(-1.8369701987210297e-16,-1,1,-1.8369701987210297e-16,84.7749305779704,798.1491481973119) translate(80.25300716774441 54.03786872176455)"/><use xlink:href="#c" transform="matrix(-1.8369701987210297e-16,-1,1,-1.8369701987210297e-16,84.7749305779704,1038.149148197312) translate(24.961239001092522 40.134467180441135)"/><use xlink:href="#f" transform="matrix(-1.8369701987210297e-16,-1,1,-1.8369701987210297e-16,84.7749305779704,1038.149148197312) translate(98.14719989222547 40.134467180441135)"/><use xlink:href="#g" transform="matrix(-1.8369701987210297e-16,-1,1,-1.8369701987210297e-16,84.77493057797051,1280) translate(56.728951671243394 40.134467180441135)"/><use xlink:href="#h" transform="matrix(-1.8369701987210297e-16,-1,1,-1.8369701987210297e-16,84.77493057797051,1280) translate(162.16308002627926 40.134467180441135)"/><path d="M540.5 684.1h143.12" stroke="#333" fill="none"/><path d="M540.5 684.6h-.5v-1h.5z" stroke="#333" stroke-width=".05" fill="#333"/><path d="M698.38 684.1l-14.26 4.65v-9.27z" stroke="#333" fill="#333"/><path d="M201.65 486.64a8 8 0 0 1 8-8h144a8 8 0 0 1 8 8v48.27a8 8 0 0 1-8 8h-144a8 8 0 0 1-8-8z" stroke="#000" stroke-opacity="0" stroke-width="2" fill="#4397ff"/><use xlink:href="#i" transform="matrix(1,0,0,1,207.2088408149592,484.2055386770607) translate(40.256436944518256 23.561105530457382)"/><use xlink:href="#j" transform="matrix(1,0,0,1,207.2088408149592,484.2055386770607) translate(39.05490841625574 48.278263826143444)"/><path d="M220 632.1a8 8 0 0 1 8-8h304a8 8 0 0 1 8 8v104a8 8 0 0 1-8 8H228a8 8 0 0 1-8-8z" stroke="#000" stroke-opacity="0" stroke-width="2" fill="#ff8839"/><use xlink:href="#k" transform="matrix(1,0,0,1,225.561,629.6753522968294) translate(7.799088263566997 60.47352638261434)"/><path d="M1060 483.08a8 8 0 0 1 8-8h215.12a8 8 0 0 1 8 8v47.53a8 8 0 0 1-8 8H1068a8 8 0 0 1-8-8z" stroke="#000" stroke-opacity="0" stroke-width="2" fill="#4397ff"/><use xlink:href="#l" transform="matrix(1,0,0,1,1065.561,480.6417260497856) translate(36.863465910768596 23.498605530457382)"/><use xlink:href="#m" transform="matrix(1,0,0,1,1065.561,480.6417260497856) translate(139.6227628993153 23.498605530457382)"/><use xlink:href="#n" transform="matrix(1,0,0,1,1065.561,480.6417260497856) translate(53.39878708542895 48.215763826143444)"/><path d="M452.2 78.4a8 8 0 0 1 8-8h836.74a8 8 0 0 1 8 8v25.16a8 8 0 0 1-8 8H460.2a8 8 0 0 1-8-8z" stroke="#000" stroke-opacity="0" stroke-width="2" fill="#fff" fill-opacity="0"/><use xlink:href="#o" transform="matrix(1,0,0,1,456.1891668241444,74.40068153262868) translate(166.61061728395066 25.782777777777778)"/><use xlink:href="#p" transform="matrix(1,0,0,1,456.1891668241444,74.40068153262868) translate(224.66370370370373 25.782777777777778)"/><use xlink:href="#q" transform="matrix(1,0,0,1,456.1891668241444,74.40068153262868) translate(307.62790123456796 25.782777777777778)"/><use xlink:href="#r" transform="matrix(1,0,0,1,456.1891668241444,74.40068153262868) translate(484.9920987654321 25.782777777777778)"/><use xlink:href="#s" transform="matrix(1,0,0,1,456.1891668241444,74.40068153262868) translate(567.8106172839506 25.782777777777778)"/><path d="M646.32 110.2h471.72M646.34 110.2h-1.02M1118.02 110.2h1.02" stroke="#a9afb8" stroke-width="2" fill="none"/><path d="M452.2 119.56a8 8 0 0 1 8-8h837.7a8 8 0 0 1 8 8v2.84a8 8 0 0 1-8 8H460.2a8 8 0 0 1-8-8z" stroke="#000" stroke-opacity="0" stroke-width="2" fill="#fff" fill-opacity="0"/><use xlink:href="#t" transform="matrix(1,0,0,1,456.1891668241449,115.5559054895275) translate(298.60717078189305 14.917037037037037)"/><use xlink:href="#u" transform="matrix(1,0,0,1,456.1891668241449,115.5559054895275) translate(374.7487345679013 14.917037037037037)"/><use xlink:href="#v" transform="matrix(1,0,0,1,456.1891668241449,115.5559054895275) translate(430.2402983539095 14.917037037037037)"/><use xlink:href="#w" transform="matrix(1,0,0,1,456.1891668241449,115.5559054895275) translate(442.6897839506173 14.917037037037037)"/><use xlink:href="#x" transform="matrix(1,0,0,1,456.1891668241449,115.5559054895275) translate(494.52723251028806 14.917037037037037)"/><use xlink:href="#y" transform="matrix(1,0,0,1,456.1891668241449,115.5559054895275) translate(520.0210596707819 14.917037037037037)"/><path d="M201.65 375.8a8 8 0 0 1 8-8h144a8 8 0 0 1 8 8v44a8 8 0 0 1-8 8h-144a8 8 0 0 1-8-8z" stroke="#000" stroke-opacity="0" stroke-width="2" fill="#4397ff"/><use xlink:href="#z" transform="matrix(1,0,0,1,207.2088408149592,373.3492802397662) translate(32.24624675610147 29.373605530457382)"/><use xlink:href="#A" transform="matrix(1,0,0,1,207.2088408149592,373.3492802397662) translate(82.42436672211232 29.373605530457382)"/><path d="M720 429.8c0 4.4-22.4 8-50 8s-50-3.6-50-8v-64c0-4.43 22.4-8 50-8s50 3.57 50 8z" stroke="#3a414a" fill="#4397ff"/><path d="M720 365.8c0 4.4-22.4 8-50 8s-50-3.6-50-8" stroke="#3a414a" fill="none"/><use xlink:href="#B" transform="matrix(1,0,0,1,625,378.7882802397662) translate(9.125 31.275)"/><path d="M362.65 397.8H601" stroke="#3a414a" stroke-width="2" fill="none"/><path d="M362.67 398.8h-1.02v-2h1.02z" stroke="#3a414a" stroke-width=".05" fill="#3a414a"/><path d="M616.27 397.8L602 402.4v-9.27z" stroke="#3a414a" stroke-width="2" fill="#3a414a"/><path d="M314.83 355.8a8 8 0 0 1 8-8h224a8 8 0 0 1 8 8v44a8 8 0 0 1-8 8h-224a8 8 0 0 1-8-8z" stroke="#000" stroke-opacity="0" fill="#fff" fill-opacity="0"/><use xlink:href="#C" transform="matrix(1,0,0,1,319.83056733463263,352.7882802397662) translate(62.62499999999999 30.025)"/><path d="M588.47 478.78a8 8 0 0 1 8-8h144a8 8 0 0 1 8 8v56.13a8 8 0 0 1-8 8h-144a8 8 0 0 1-8-8z" stroke="#000" stroke-opacity="0" stroke-width="2" fill="#4397ff"/><use xlink:href="#D" transform="matrix(1,0,0,1,600.4737232217501,482.7766969727468) translate(26.275 17.4625)"/><use xlink:href="#E" transform="matrix(1,0,0,1,600.4737232217501,482.7766969727468) translate(9.599999999999994 39.0625)"/><use xlink:href="#F" transform="matrix(1,0,0,1,600.4737232217501,482.7766969727468) translate(66.55 39.0625)"/><path d="M362.65 510.78h207.32" stroke="#3a414a" stroke-width="2" fill="none"/><path d="M362.67 511.78h-1.02v-2h1.02z" stroke="#3a414a" stroke-width=".05" fill="#3a414a"/><path d="M585.24 510.78l-14.27 4.63v-9.26z" stroke="#3a414a" stroke-width="2" fill="#3a414a"/><path d="M340 466.64a8 8 0 0 1 8-8h224a8 8 0 0 1 8 8v44a8 8 0 0 1-8 8H348a8 8 0 0 1-8-8z" stroke="#000" stroke-opacity="0" fill="#fff" fill-opacity="0"/><use xlink:href="#G" transform="matrix(1,0,0,1,345,463.6445142393885) translate(23.375 30.025)"/><path d="M700 632.1a8 8 0 0 1 8-8h128a8 8 0 0 1 8 8v94c-24.05-17.02-39.02-17.02-48.1-17.02-14.4 0-33.55 17.03-47.95 17.03-8.93 0-24.05 0-47.95-17.02z" stroke="#3a414a" fill="#ff8839"/><path d="M708 641.1a8 8 0 0 1 8-8h128a8 8 0 0 1 8 8v94c-24.05-17.02-39.02-17.02-48.1-17.02-14.4 0-33.55 17.03-47.95 17.03-8.93 0-24.05 0-47.95-17.02z" stroke="#3a414a" fill="#ff8839"/><path d="M716 650.1a8 8 0 0 1 8-8h128a8 8 0 0 1 8 8v94c-24.05-17.02-39.02-17.02-48.1-17.02-14.4 0-33.55 17.03-47.95 17.03-8.93 0-24.05 0-47.95-17.02z" stroke="#3a414a" fill="#ff8839"/><use xlink:href="#H" transform="matrix(1,0,0,1,721,647.1143522968293) translate(22.6 40.18125)"/><path d="M940 612.1a8 8 0 0 1 8-8h238.3a8 8 0 0 1 8 8v144a8 8 0 0 1-8 8H948a8 8 0 0 1-8-8z" fill="none"/><path d="M940 764.1c5.52 0 10-4.46 10-10v-60c0-5.5 4.48-10 10-10-5.52 0-10-4.46-10-10v-60c0-5.5-4.48-10-10-10" stroke="#3a414a" fill="none"/><use xlink:href="#I" transform="matrix(1,0,0,1,975,609.1143522968293) translate(39.16574074074076 42.644444444444446)"/><use xlink:href="#J" transform="matrix(1,0,0,1,975,609.1143522968293) translate(116.40339506172839 42.644444444444446)"/><use xlink:href="#K" transform="matrix(1,0,0,1,975,609.1143522968293) translate(34.61574074074076 66.91111111111111)"/><use xlink:href="#L" transform="matrix(1,0,0,1,975,609.1143522968293) translate(139.99598765432097 66.91111111111111)"/><use xlink:href="#M" transform="matrix(1,0,0,1,975,609.1143522968293) translate(10.573765432098782 91.17777777777778)"/><use xlink:href="#N" transform="matrix(1,0,0,1,975,609.1143522968293) translate(95.73179012345679 91.17777777777778)"/><use xlink:href="#O" transform="matrix(1,0,0,1,975,609.1143522968293) translate(168.58796296296296 91.17777777777778)"/><use xlink:href="#P" transform="matrix(1,0,0,1,975,609.1143522968293) translate(48.658950617283956 115.44444444444444)"/><use xlink:href="#Q" transform="matrix(1,0,0,1,975,609.1143522968293) translate(111.51635802469136 115.44444444444444)"/><path d="M781.46 466.64a8 8 0 0 1 8-8h179.17a8 8 0 0 1 8 8v44a8 8 0 0 1-8 8H789.46a8 8 0 0 1-8-8z" stroke="#000" stroke-opacity="0" fill="#fff" fill-opacity="0"/><use xlink:href="#R" transform="matrix(1,0,0,1,786.4578977508027,463.6445386770607) translate(-1.7999999999999972 28.6)"/><path d="M220 854.56a8 8 0 0 1 8-8h144a8 8 0 0 1 8 8v104a8 8 0 0 1-8 8H228a8 8 0 0 1-8-8z" stroke="#3a414a" fill="#3fb8b9"/><use xlink:href="#S" transform="matrix(1,0,0,1,232,858.5581336584319) translate(42.075 41.4)"/><use xlink:href="#T" transform="matrix(1,0,0,1,232,858.5581336584319) translate(22.599999999999994 63)"/><path d="M749.47 506.84h292.03" stroke="#3a414a" stroke-width="2" fill="none"/><path d="M749.5 507.84h-1.03v-2h1.03z" stroke="#3a414a" stroke-width=".05" fill="#3a414a"/><path d="M1056.76 506.84l-14.26 4.64v-9.27z" stroke="#3a414a" stroke-width="2" fill="#3a414a"/><path d="M1175.56 539.1v30.26a12 12 0 0 1-12 12H392a12 12 0 0 0-12 12v14.37" stroke="#3a414a" fill="none"/><path d="M1176.06 539.12h-1v-.5h1z" stroke="#3a414a" stroke-width=".05" fill="#3a414a"/><path d="M380 622.5l-4.63-14.27h9.26z" stroke="#3a414a" fill="#3a414a"/><path d="M621.46 854.56a8 8 0 0 1 8-8h128a8 8 0 0 1 8 8v94c-24.05-17.04-39.03-17.04-48.1-17.04-14.4 0-33.55 17.04-47.95 17.04-8.92 0-24.04 0-47.94-17.04z" stroke="#3a414a" fill="#3fb8b9"/><path d="M629.46 863.56a8 8 0 0 1 8-8h128a8 8 0 0 1 8 8v94c-24.05-17.04-39.03-17.04-48.1-17.04-14.4 0-33.55 17.04-47.95 17.04-8.92 0-24.04 0-47.94-17.04z" stroke="#3a414a" fill="#3fb8b9"/><path d="M637.46 872.56a8 8 0 0 1 8-8h128a8 8 0 0 1 8 8v94c-24.05-17.04-39.03-17.04-48.1-17.04-14.4 0-33.55 17.04-47.95 17.04-8.92 0-24.04 0-47.94-17.04z" stroke="#3a414a" fill="#3fb8b9"/><use xlink:href="#U" transform="matrix(1,0,0,1,642.4578977508027,869.5581336584319) translate(19.099999999999994 30.80625)"/><use xlink:href="#V" transform="matrix(1,0,0,1,642.4578977508027,869.5581336584319) translate(2.174999999999997 52.40625)"/><use xlink:href="#W" transform="matrix(1,0,0,1,642.4578977508027,869.5581336584319) translate(72.025 52.40625)"/><path d="M381 906.56h223.57" stroke="#3a414a" fill="none"/><path d="M381 907.06h-.5v-1h.5z" stroke="#3a414a" stroke-width=".05" fill="#3a414a"/><path d="M619.34 906.56l-14.27 4.63v-9.28z" stroke="#3a414a" fill="#3a414a"/><path d="M360 859.27a8 8 0 0 1 8-8h224a8 8 0 0 1 8 8v44a8 8 0 0 1-8 8H368a8 8 0 0 1-8-8z" stroke="#000" stroke-opacity="0" fill="#fff" fill-opacity="0"/><use xlink:href="#X" transform="matrix(1,0,0,1,365,856.2751401294256) translate(28.700000000000017 30.025)"/><path d="M640 1107.08a8 8 0 0 1 8-8h155.4a8 8 0 0 1 8 8v104a8 8 0 0 1-8 8H648a8 8 0 0 1-8-8z" stroke="#3a414a" fill="#1071e5"/><path d="M709.2 1133.58c-1.7-.6-2.78-.6-4.6-.6-9.53 0-16.93 6.9-17.36 15.9h-.64c-5.67 0-10.28 4.9-10.28 10.2 0 9.3 10.5 8.6 10.8 8.6h22.73l19.6-22.2c2.78-3.6 8.47-3.6 11.25-.3l19.9 22.5c8.17-.7 14.48-6.3 14.48-14.2.33-6.6-4.28-13.2-11.35-14.9v-.7c0-13.8-12.32-25.1-27.2-25.1-13.5 0-25.2 8.9-27.34 20.8m33 70.1v-25.7h12.86c1.4 0 2.45-2 1.4-3l-19.94-23.8c-.74-.7-2.15-.7-2.88 0l-20.47 23.8c-.75 1 0 3 1.4 3h12.95v25.7c0 .9.85 1.7 1.83 1.7h11.02c1.08 0 1.84-.8 1.84-1.7" fill="#64a3ee"/><use xlink:href="#Y" transform="matrix(1,0,0,1,645,1104.0745740986558) translate(22.124999999999993 58.6)"/><use xlink:href="#Z" transform="matrix(1,0,0,1,645,1104.0745740986558) translate(87.92500000000001 58.6)"/><path d="M861.5 684.2h3.38m6.75 0h6.75m6.75 0h3.37l1.88.16 1.83.44.88.36m6.47 6.48l.36.87.45 1.84.15 1.87v4m0 7.96v7.96m0 7.96v7.97m0 7.96v7.97m0 7.96v7.97m0 7.96v7.96m0 7.96v7.97m0 7.96v7.97m0 7.97v7.96m0 7.96v7.96m0 7.97v7.95m0 7.96v7.98m0 7.96v7.96m0 7.96v7.97m0 7.96v7.95m0 7.97v7.96m0 7.96V955m0 7.97v7.96m0 7.96v7.95m0 7.97v7.96m0 7.96v7.97m0 7.97v7.96m0 7.96v3.98l-.15 1.87-.44 1.83-.35.87m-6.47 6.48l-.87.36-1.82.43-1.88.14h-3.98m-7.97 0h-7.97m-7.96 0h-7.97m-7.97 0h-7.96m-7.97 0h-7.97m-7.96 0h-7.97m-7.96 0h-7.98m-7.97 0H773m-7.98 0h-7.97m-7.96 0h-4l-1.87.15-1.84.44-.87.36m-6.48 6.48l-.36.87-.45 1.83-.15 1.88v9.5" stroke="#3a414a" stroke-width="2" fill="none"/><path d="M861.53 685.2h-1.03v-2h1.03z" stroke="#3a414a" stroke-width=".05" fill="#3a414a"/><path d="M733.1 1095.34l-4.63-14.27h9.27z" stroke="#3a414a" stroke-width="2" fill="#3a414a"/><path d="M1073.6 1103.88a10.67 10.67 0 0 1 12.8 0l67.2 50.4a6 6 0 0 1 0 9.6l-67.2 50.4a10.67 10.67 0 0 1-12.8 0l-67.2-50.4a6 6 0 0 1 0-9.6z" stroke="#3a414a" fill="#1071e5"/><use xlink:href="#aa" transform="matrix(1,0,0,1,1005,1104.0745740986558) translate(46.755 59.0875)"/><use xlink:href="#ab" transform="matrix(1,0,0,1,1005,1104.0745740986558) translate(67.755 59.0875)"/><use xlink:href="#ac" transform="matrix(1,0,0,1,1005,1104.0745740986558) translate(83.255 59.0875)"/><path d="M781.46 1108a8 8 0 0 1 8-8h224a8 8 0 0 1 8 8v44a8 8 0 0 1-8 8h-224a8 8 0 0 1-8-8z" stroke="#000" stroke-opacity="0" fill="#fff" fill-opacity="0"/><g><use xlink:href="#ad" transform="matrix(1,0,0,1,786.4578977508027,1105) translate(46.07499999999999 30.025)"/></g><path d="M812.4 1159.08H1003" stroke="#3a414a" fill="none"/><path d="M812.4 1159.58h-.5v-1h.5zM1003.5 1159.08l.04.5h-.55v-1h.54z" stroke="#3a414a" stroke-width=".05" fill="#3a414a"/><path d="M1299 1147.1l-.16 2-.47 2-.78 1.88-1.08 1.74-1.32 1.55-1.56 1.32-1.74 1.06-1.88.78-1.98.48-2 .15H1157.5v-2h128.46l1.76-.13 1.68-.4 1.6-.67 1.46-.9 1.32-1.12 1.12-1.3.9-1.48.66-1.6.4-1.67.14-1.76v-8.1h2zm122-48.87h-110.96l-1.76.14-1.68.4-1.6.66-1.46.9-1.32 1.12-1.12 1.32-.9 1.47-.66 1.6-.4 1.67-.14 1.77v8.08h-2v-8.16l.16-2 .47-2 .78-1.88 1.08-1.73 1.33-1.57 1.56-1.32 1.74-1.06 1.88-.78 2-.47 1.98-.17H1421z" stroke="#008a0e" stroke-width=".05" fill="#008a0e"/><path d="M1157.53 1160.08h-1.12l.1-1-.1-1h1.13z" fill="#008a0e"/><path d="M1157.55 1160.1h-1.17l.1-1.02-.1-1.03h1.17zm-1.1-2l.08.98-.1.97h1.07v-1.95z" stroke="#008a0e" stroke-width=".05" fill="#008a0e"/><path d="M1436.26 1097.23l-14.26 4.63v-9.27z" fill="#008a0e"/><path d="M1439.5 1097.23l-18.5 6v-12zm-16.5 3.26l10.03-3.27-10.03-3.26z" stroke="#008a0e" stroke-width=".05" fill="#008a0e"/><g><use xlink:href="#ae" transform="matrix(1,0,0,1,1282.501080268325,1117.3515247433265) translate(0.005000000000000782 14.4)"/></g><path d="M1440 1068a8 8 0 0 1 8-8h104a8 8 0 0 1 8 8v64a8 8 0 0 1-8 8h-104a8 8 0 0 1-8-8z" stroke="#3a414a" fill="#008a0e"/><path d="M1500 1120.66c-2.33 0-4.2 1.68-4.2 3.74 0 2 1.87 3.66 4.2 3.66 2.26 0 4.13-1.66 4.13-3.66 0-2.06-1.87-3.74-4.13-3.74m13.87 0c-2.3 0-4.2 1.68-4.2 3.74 0 2 1.9 3.66 4.2 3.66 2.33 0 4.13-1.66 4.13-3.66 0-2.06-1.8-3.74-4.13-3.74m-27.8 0c-2.27 0-4.14 1.68-4.14 3.74 0 2 1.87 3.66 4.13 3.66 2.3 0 4.2-1.66 4.2-3.66 0-2.06-1.9-3.74-4.2-3.74m-4.13-4.66H1518c4.66 0 8.4-3.26 8.4-7.4v-32.06c0-4.14-3.74-7.4-8.4-7.4h-36.07c-4.6 0-8.33 3.26-8.33 7.4v32.06c0 4.14 3.74 7.4 8.33 7.4m13.5-31.8l8.24 10.54 5.26-3.94 9.07 10.4h-36.07l13.5-17z" fill="#59b362"/><g><use xlink:href="#af" transform="matrix(1,0,0,1,1445,1065) translate(14.074999999999996 17)"/><use xlink:href="#ag" transform="matrix(1,0,0,1,1445,1065) translate(3.5749999999999957 38.6)"/><use xlink:href="#ah" transform="matrix(1,0,0,1,1445,1065) translate(59.475 38.6)"/><use xlink:href="#ai" transform="matrix(1,0,0,1,1445,1065) translate(28.549999999999997 60.2)"/><use xlink:href="#aj" transform="matrix(1,0,0,1,1445,1065) translate(65.45 60.2)"/></g><path d="M1081 1227.96l.14 1.76.4 1.68.66 1.6.9 1.46 1.12 1.32 1.32 1.12 1.47.9 1.6.66 1.68.4 1.76.14h144.46v2h-144.54l-2-.16-1.98-.47-1.88-.78-1.74-1.08-1.55-1.33-1.32-1.56-1.07-1.74-.77-1.88-.47-2-.16-1.98v-10.13h2zm340.5 11.04v2h-161.1v-2z" stroke="#e81313" stroke-width=".05" fill="#e81313"/><path d="M1080 1216.9l1-.06v1.1h-2v-1.1z" fill="#e81313"/><path d="M1080 1216.88l1.03-.06v1.14h-2.06v-1.14zm-.97 1.03h1.94v-1.03l-.97.06-.97-.06z" stroke="#e81313" stroke-width=".05" fill="#e81313"/><path d="M1436.76 1240l-14.26 4.63v-9.27z" fill="#e81313"/><path d="M1440 1240l-18.5 6v-12zm-16.5 3.26l10.03-3.26-10.03-3.26z" stroke="#e81313" stroke-width=".05" fill="#e81313"/><g><use xlink:href="#ak" transform="matrix(1,0,0,1,1236.5044617462797,1229.2) translate(0.005000000000000782 14.4)"/></g><path d="M1440 1168a8 8 0 0 1 8-8h104a8 8 0 0 1 8 8v84a8 8 0 0 1-8 8h-104a8 8 0 0 1-8-8z" stroke="#3a414a" fill="#eb6b6b"/><path d="M1467.97 1243.5h64.06c2.1 0 3.44-2.58 2.33-4.58l-32.03-57.92c-1.06-1.92-3.6-1.92-4.66 0l-32 57.92c-1.14 2 .2 4.58 2.3 4.58m27.9-15.08v-.1h8.26v9.1h-8.26v-9zm0-27.42h8.26v21.25h-8.26V1201z" fill="#f29f9f"/><g><use xlink:href="#al" transform="matrix(1,0,0,1,1445,1165) translate(24.124999999999993 27)"/><use xlink:href="#am" transform="matrix(1,0,0,1,1445,1165) translate(23.099999999999994 48.6)"/><use xlink:href="#an" transform="matrix(1,0,0,1,1445,1165) translate(29.549999999999997 70.2)"/></g><path d="M721.5 397.8h3.97m7.93 0h7.93m7.94 0h7.93m7.94 0h7.93m7.94 0h7.94m7.93 0h7.94m7.94 0h7.94m7.93 0h7.95m7.93 0h7.94m7.93 0h7.93m7.94 0h7.93m7.94 0H900m7.94 0h7.93m7.93 0h7.93m7.93 0h7.93m7.93 0h7.94m7.93 0h7.94m7.93 0h7.94m7.93 0h7.93m7.94 0h7.93m7.94 0h7.94m7.94 0h7.93m7.94 0h7.94m7.93 0h7.95m7.93 0h7.94m7.93 0h7.94m7.92 0h7.94m7.93 0h7.92m7.94 0h7.93m7.93 0h7.93m7.93 0h7.93m7.93 0h7.94m7.93 0h7.94m7.93 0h7.94m7.93 0h7.94m7.94 0h7.93m7.94 0h7.94m7.94 0h7.93m7.95 0h7.93m7.93 0h7.95m7.93 0h7.94m7.93 0h7.94m7.92 0h7.94m7.93 0h7.92m7.94 0h7.93m7.93 0h7.93m7.94 0h7.93m7.93 0h7.94m7.93 0h7.94m7.93 0h3.97l1.88.14 1.83.44.87.36m6.47 6.47l.36.88.44 1.83.15 1.9v4.03m0 8.1v8.1m0 8.08v8.1m0 8.1v8.1m0 8.08v8.1m0 8.1v8.08m0 8.1v8.08m0 8.1v8.1m0 8.08v8.1m0 8.1v8.08m0 8.1v8.08m0 8.1v8.1m0 8.08v8.1m0 8.1v8.08m0 8.1v8.08m0 8.1v8.1m0 8.08v8.1m0 8.1v8.08m0 8.1v8.08m0 8.1v8.1m0 8.08v8.1m0 8.08v8.1m0 8.1v8.08m0 8.1v8.1m0 8.08v8.1m0 8.08v8.1m0 8.1v8.08m0 8.1v8.1m0 8.08v8.1m0 8.08v8.1m0 8.1v8.08m0 8.1v8.1m0 8.08v8.1m0 8.08v8.1m0 8.1v8.08m0 8.1v8.08m0 8.1v8.1m0 8.08v8.1m0 8.1v8.08m0 8.1v4.04" stroke="#3a414a" stroke-width="2" fill="none"/><path d="M721.52 398.8h-1.02v-2h1.02z" stroke="#3a414a" stroke-width=".05" fill="#3a414a"/><path d="M1511.07 1056.26l-4.63-14.26h9.26z" stroke="#3a414a" stroke-width="2" fill="#3a414a"/><path d="M280 1107.08a8 8 0 0 1 8-8h144a8 8 0 0 1 8 8v104a8 8 0 0 1-8 8H288a8 8 0 0 1-8-8z" stroke="#000" stroke-opacity="0" stroke-width="2" fill="#1071e5"/><g><use xlink:href="#S" transform="matrix(1,0,0,1,292,1111.0745740986558) translate(42.075 41.4)"/><use xlink:href="#ao" transform="matrix(1,0,0,1,292,1111.0745740986558) translate(3.5749999999999886 63)"/><use xlink:href="#ap" transform="matrix(1,0,0,1,292,1111.0745740986558) translate(90.52499999999999 63)"/></g><path d="M701.46 963.04v4.63m0 9.25v9.25m0 9.25v9.26m0 9.25v4.63l-.15 1.87-.43 1.84-.36.87m-6.46 6.47l-.87.37-1.83.44-1.88.16h-3.97m-7.95 0h-7.93m-7.94 0h-7.94m-7.93 0h-7.93m-7.94 0H622m-7.94 0h-7.93m-7.94 0h-7.95m-7.93 0h-7.94m-7.94 0h-7.93m-7.93 0h-7.94m-7.93 0h-7.94m-7.94 0h-7.93m-7.95 0H495m-7.92 0h-7.94m-7.93 0h-7.93m-7.94 0h-7.93m-7.94 0h-7.94m-7.93 0h-7.95m-7.94 0h-7.92m-7.94 0h-7.94m-7.93 0H372l-1.88.14-1.83.44-.88.36m-6.47 6.48l-.36.87-.45 1.83-.15 1.88v4.75m0 9.5v9.52m0 9.5v4.75" stroke="#3a414a" stroke-width="2" fill="none"/><path d="M702.46 963.07h-2v-.57l2-.92z" stroke="#3a414a" stroke-width=".05" fill="#3a414a"/><path d="M360 1095.84l-4.63-14.27h9.26z" stroke="#3a414a" stroke-width="2" fill="#3a414a"/><defs><path fill="#fff" d="M24-248c120-7 223 5 221 122C244-46 201 0 124 0H24v-248zM76-40c74 7 117-18 117-86 0-67-45-88-117-82v168" id="aq"/><path fill="#fff" d="M133-34C117-15 103 5 69 4 32 3 11-16 11-54c-1-60 55-63 116-61 1-26-3-47-28-47-18 1-26 9-28 27l-52-2c7-38 36-58 82-57s74 22 75 68l1 82c-1 14 12 18 25 15v27c-30 8-71 5-69-32zm-48 3c29 0 43-24 42-57-32 0-66-3-65 30 0 17 8 27 23 27" id="ar"/><path fill="#fff" d="M115-3C79 11 28 4 28-45v-112H4v-33h27l15-45h31v45h36v33H77v99c-1 23 16 31 38 25v30" id="as"/><g id="a"><use transform="matrix(0.06436759972834913,0,0,0.06436759972834913,0,0)" xlink:href="#aq"/><use transform="matrix(0.06436759972834913,0,0,0.06436759972834913,16.671208329642425,0)" xlink:href="#ar"/><use transform="matrix(0.06436759972834913,0,0,0.06436759972834913,29.544728275312252,0)" xlink:href="#as"/><use transform="matrix(0.06436759972834913,0,0,0.06436759972834913,37.2044726429858,0)" xlink:href="#ar"/></g><path fill="#fff" d="M24-248c93 1 206-16 204 79-1 75-69 88-152 82V0H24v-248zm52 121c47 0 100 7 100-41 0-47-54-39-100-39v80" id="at"/><path fill="#fff" d="M135-150c-39-12-60 13-60 57V0H25l-1-190h47c2 13-1 29 3 40 6-28 27-53 61-41v41" id="au"/><path fill="#fff" d="M185-48c-13 30-37 53-82 52C43 2 14-33 14-96s30-98 90-98c62 0 83 45 84 108H66c0 31 8 55 39 56 18 0 30-7 34-22zm-45-69c5-46-57-63-70-21-2 6-4 13-4 21h74" id="av"/><path fill="#fff" d="M135-194c53 0 70 44 70 98 0 56-19 98-73 100-31 1-45-17-59-34 3 33 2 69 2 105H25l-1-265h48c2 10 0 23 3 31 11-24 29-35 60-35zM114-30c33 0 39-31 40-66 0-38-9-64-40-64-56 0-55 130 0 130" id="aw"/><path fill="#fff" d="M25-224v-37h50v37H25zM25 0v-190h50V0H25" id="ax"/><path fill="#fff" d="M110-194c64 0 96 36 96 99 0 64-35 99-97 99-61 0-95-36-95-99 0-62 34-99 96-99zm-1 164c35 0 45-28 45-65 0-40-10-65-43-65-34 0-45 26-45 65 0 36 10 65 43 65" id="ay"/><path fill="#fff" d="M135-194c87-1 58 113 63 194h-50c-7-57 23-157-34-157-59 0-34 97-39 157H25l-1-190h47c2 12-1 28 3 38 12-26 28-41 61-42" id="az"/><g id="b"><use transform="matrix(0.06436759972834913,0,0,0.06436759972834913,0,0)" xlink:href="#at"/><use transform="matrix(0.06436759972834913,0,0,0.06436759972834913,15.44822393480379,0)" xlink:href="#au"/><use transform="matrix(0.06436759972834913,0,0,0.06436759972834913,24.45968789677267,0)" xlink:href="#av"/><use transform="matrix(0.06436759972834913,0,0,0.06436759972834913,37.3332078424425,0)" xlink:href="#aw"/><use transform="matrix(0.06436759972834913,0,0,0.06436759972834913,51.42971218295096,0)" xlink:href="#ar"/><use transform="matrix(0.06436759972834913,0,0,0.06436759972834913,64.30323212862078,0)" xlink:href="#au"/><use transform="matrix(0.06436759972834913,0,0,0.06436759972834913,73.31469609058965,0)" xlink:href="#ar"/><use transform="matrix(0.06436759972834913,0,0,0.06436759972834913,86.18821603625949,0)" xlink:href="#as"/><use transform="matrix(0.06436759972834913,0,0,0.06436759972834913,93.84796040393303,0)" xlink:href="#ax"/><use transform="matrix(0.06436759972834913,0,0,0.06436759972834913,100.28472037676794,0)" xlink:href="#ay"/><use transform="matrix(0.06436759972834913,0,0,0.06436759972834913,114.3812247172764,0)" xlink:href="#az"/></g><path fill="#fff" d="M230 0l2-204L168 0h-37L68-204 70 0H24v-248h70l56 185 57-185h69V0h-46" id="aA"/><path fill="#fff" d="M88-194c31-1 46 15 58 34l-1-101h50l1 261h-48c-2-10 0-23-3-31C134-8 116 4 84 4 32 4 16-41 15-95c0-56 19-97 73-99zm17 164c33 0 40-30 41-66 1-37-9-64-41-64s-38 30-39 65c0 43 13 65 39 65" id="aB"/><path fill="#fff" d="M25 0v-261h50V0H25" id="aC"/><g id="c"><use transform="matrix(0.06436759972834913,0,0,0.06436759972834913,0,0)" xlink:href="#aA"/><use transform="matrix(0.06436759972834913,0,0,0.06436759972834913,19.24591231877639,0)" xlink:href="#ay"/><use transform="matrix(0.06436759972834913,0,0,0.06436759972834913,33.34241665928485,0)" xlink:href="#aB"/><use transform="matrix(0.06436759972834913,0,0,0.06436759972834913,47.43892099979331,0)" xlink:href="#av"/><use transform="matrix(0.06436759972834913,0,0,0.06436759972834913,60.31244094546314,0)" xlink:href="#aC"/></g><path fill="#fff" d="M136-208V0H84v-208H4v-40h212v40h-80" id="aD"/><path fill="#fff" d="M195-6C206 82 75 100 31 46c-4-6-6-13-8-21l49-6c3 16 16 24 34 25 40 0 42-37 40-79-11 22-30 35-61 35-53 0-70-43-70-97 0-56 18-96 73-97 30 0 46 14 59 34l2-30h47zm-90-29c32 0 41-27 41-63 0-35-9-62-40-62-32 0-39 29-40 63 0 36 9 62 39 62" id="aE"/><g id="d"><use transform="matrix(0.06436759972834913,0,0,0.06436759972834913,0,0)" xlink:href="#aD"/><use transform="matrix(0.06436759972834913,0,0,0.06436759972834913,12.809152345941477,0)" xlink:href="#au"/><use transform="matrix(0.06436759972834913,0,0,0.06436759972834913,21.820616307910356,0)" xlink:href="#ar"/><use transform="matrix(0.06436759972834913,0,0,0.06436759972834913,34.69413625358018,0)" xlink:href="#ax"/><use transform="matrix(0.06436759972834913,0,0,0.06436759972834913,41.130896226415096,0)" xlink:href="#az"/><use transform="matrix(0.06436759972834913,0,0,0.06436759972834913,55.227400566923556,0)" xlink:href="#ax"/><use transform="matrix(0.06436759972834913,0,0,0.06436759972834913,61.66416053975847,0)" xlink:href="#az"/><use transform="matrix(0.06436759972834913,0,0,0.06436759972834913,75.76066488026693,0)" xlink:href="#aE"/></g><path fill="#fff" d="M67-93c0 74 22 123 53 168H70C40 30 18-18 18-93s22-123 52-168h50c-32 44-53 94-53 168" id="aF"/><path fill="#fff" d="M67-125c0 53 21 87 73 88 37 1 54-22 65-47l45 17C233-25 199 4 140 4 58 4 20-42 15-125 8-235 124-281 211-232c18 10 29 29 36 50l-46 12c-8-25-30-41-62-41-52 0-71 34-72 86" id="aG"/><path fill="#fff" d="M135-194c52 0 70 43 70 98 0 56-19 99-73 100-30 1-46-15-58-35L72 0H24l1-261h50v104c11-23 29-37 60-37zM114-30c31 0 40-27 40-66 0-37-7-63-39-63s-41 28-41 65c0 36 8 64 40 64" id="aH"/><path fill="#fff" d="M102-93c0 74-22 123-52 168H0C30 29 54-18 53-93c0-74-22-123-53-168h50c30 45 52 94 52 168" id="aI"/><g id="e"><use transform="matrix(0.06436759972834913,0,0,0.06436759972834913,0,0)" xlink:href="#aF"/><use transform="matrix(0.06436759972834913,0,0,0.06436759972834913,7.659744367673547,0)" xlink:href="#aG"/><use transform="matrix(0.06436759972834913,0,0,0.06436759972834913,24.330952697315972,0)" xlink:href="#ay"/><use transform="matrix(0.06436759972834913,0,0,0.06436759972834913,38.42745703782443,0)" xlink:href="#aC"/><use transform="matrix(0.06436759972834913,0,0,0.06436759972834913,44.864217010659345,0)" xlink:href="#ar"/><use transform="matrix(0.06436759972834913,0,0,0.06436759972834913,57.73773695632917,0)" xlink:href="#aH"/><use transform="matrix(0.06436759972834913,0,0,0.06436759972834913,71.83424129683763,0)" xlink:href="#aI"/></g><path fill="#fff" d="M24 0v-248h195v40H76v63h132v40H76v65h150V0H24" id="aJ"/><path fill="#fff" d="M128 0H69L1-190h53L99-40l48-150h52" id="aK"/><path fill="#fff" d="M85 4C-2 5 27-109 22-190h50c7 57-23 150 33 157 60-5 35-97 40-157h50l1 190h-47c-2-12 1-28-3-38-12 25-28 42-61 42" id="aL"/><g id="f"><use transform="matrix(0.06436759972834913,0,0,0.06436759972834913,0,0)" xlink:href="#aJ"/><use transform="matrix(0.06436759972834913,0,0,0.06436759972834913,15.44822393480379,0)" xlink:href="#aK"/><use transform="matrix(0.06436759972834913,0,0,0.06436759972834913,28.321743880473615,0)" xlink:href="#ar"/><use transform="matrix(0.06436759972834913,0,0,0.06436759972834913,41.195263826143446,0)" xlink:href="#aC"/><use transform="matrix(0.06436759972834913,0,0,0.06436759972834913,47.63202379897835,0)" xlink:href="#aL"/><use transform="matrix(0.06436759972834913,0,0,0.06436759972834913,61.72852813948681,0)" xlink:href="#ar"/><use transform="matrix(0.06436759972834913,0,0,0.06436759972834913,74.60204808515664,0)" xlink:href="#as"/><use transform="matrix(0.06436759972834913,0,0,0.06436759972834913,82.26179245283018,0)" xlink:href="#ax"/><use transform="matrix(0.06436759972834913,0,0,0.06436759972834913,88.69855242566508,0)" xlink:href="#ay"/><use transform="matrix(0.06436759972834913,0,0,0.06436759972834913,102.79505676617354,0)" xlink:href="#az"/></g><path fill="#fff" d="M169-182c-1-43-94-46-97-3 18 66 151 10 154 114 3 95-165 93-204 36-6-8-10-19-12-30l50-8c3 46 112 56 116 5-17-69-150-10-154-114-4-87 153-88 188-35 5 8 8 18 10 28" id="aM"/><path fill="#fff" d="M220-157c-53 9-28 100-34 157h-49v-107c1-27-5-49-29-50C55-147 81-57 75 0H25l-1-190h47c2 12-1 28 3 38 10-53 101-56 108 0 13-22 24-43 59-42 82 1 51 116 57 194h-49v-107c-1-25-5-48-29-50" id="aN"/><g id="g"><use transform="matrix(0.06436759972834913,0,0,0.06436759972834913,0,0)" xlink:href="#aM"/><use transform="matrix(0.06436759972834913,0,0,0.06436759972834913,15.44822393480379,0)" xlink:href="#as"/><use transform="matrix(0.06436759972834913,0,0,0.06436759972834913,23.10796830247734,0)" xlink:href="#au"/><use transform="matrix(0.06436759972834913,0,0,0.06436759972834913,32.11943226444622,0)" xlink:href="#av"/><use transform="matrix(0.06436759972834913,0,0,0.06436759972834913,44.992952210116044,0)" xlink:href="#ar"/><use transform="matrix(0.06436759972834913,0,0,0.06436759972834913,57.86647215578587,0)" xlink:href="#aN"/><use transform="matrix(0.06436759972834913,0,0,0.06436759972834913,78.4641040688576,0)" xlink:href="#aC"/><use transform="matrix(0.06436759972834913,0,0,0.06436759972834913,84.9008640416925,0)" xlink:href="#ax"/><use transform="matrix(0.06436759972834913,0,0,0.06436759972834913,91.3376240145274,0)" xlink:href="#as"/></g><path fill="#fff" d="M238-95c0 69-44 99-111 99C63 4 22-25 22-93v-155h51v151c-1 38 19 59 55 60 90 1 49-130 58-211h52v153" id="aO"/><path fill="#fff" d="M24 0v-248h52V0H24" id="aP"/><g id="h"><use transform="matrix(0.06436759972834913,0,0,0.06436759972834913,0,0)" xlink:href="#aO"/><use transform="matrix(0.06436759972834913,0,0,0.06436759972834913,16.671208329642425,0)" xlink:href="#aP"/></g><path fill="#fff" d="M195 0l-88-114-31 24V0H24v-248h52v113l112-113h60L142-143 257 0h-62" id="aQ"/><g id="i"><use transform="matrix(0.057215644202977006,0,0,0.057215644202977006,0,0)" xlink:href="#aQ"/><use transform="matrix(0.057215644202977006,0,0,0.057215644202977006,14.818851848571045,0)" xlink:href="#ar"/><use transform="matrix(0.057215644202977006,0,0,0.057215644202977006,26.261980689166446,0)" xlink:href="#aE"/><use transform="matrix(0.057215644202977006,0,0,0.057215644202977006,38.79220676961841,0)" xlink:href="#aE"/><use transform="matrix(0.057215644202977006,0,0,0.057215644202977006,51.32243285007037,0)" xlink:href="#aC"/><use transform="matrix(0.057215644202977006,0,0,0.057215644202977006,57.043997270368074,0)" xlink:href="#av"/></g><path fill="#fff" d="M137-138c1-29-70-34-71-4 15 46 118 7 119 86 1 83-164 76-172 9l43-7c4 19 20 25 44 25 33 8 57-30 24-41C81-84 22-81 20-136c-2-80 154-74 161-7" id="aR"/><g id="j"><use transform="matrix(0.057215644202977006,0,0,0.057215644202977006,0,0)" xlink:href="#aP"/><use transform="matrix(0.057215644202977006,0,0,0.057215644202977006,5.7215644202977005,0)" xlink:href="#aN"/><use transform="matrix(0.057215644202977006,0,0,0.057215644202977006,24.03057056525034,0)" xlink:href="#ar"/><use transform="matrix(0.057215644202977006,0,0,0.057215644202977006,35.47369940584574,0)" xlink:href="#aE"/><use transform="matrix(0.057215644202977006,0,0,0.057215644202977006,48.0039254862977,0)" xlink:href="#av"/><use transform="matrix(0.057215644202977006,0,0,0.057215644202977006,59.447054326893095,0)" xlink:href="#aR"/></g><path fill="#fff" d="M121-226c-27-7-43 5-38 36h38v33H83V0H34v-157H6v-33h28c-9-59 32-81 87-68v32" id="aS"/><path fill="#fff" d="M190-63c-7 42-38 67-86 67-59 0-84-38-90-98-12-110 154-137 174-36l-49 2c-2-19-15-32-35-32-30 0-35 28-38 64-6 74 65 87 74 30" id="aT"/><path fill="#fff" d="M24 0v-54h51V0H24" id="aU"/><path fill="#fff" d="M123 10C108 53 80 86 19 72V37c35 8 53-11 59-39L3-190h52l48 148c12-52 28-100 44-148h51" id="aV"/><g id="k"><use transform="matrix(0.057215644202977006,0,0,0.057215644202977006,0,0)" xlink:href="#aq"/><use transform="matrix(0.057215644202977006,0,0,0.057215644202977006,14.818851848571045,0)" xlink:href="#ay"/><use transform="matrix(0.057215644202977006,0,0,0.057215644202977006,27.34907792902301,0)" xlink:href="#aE"/><use transform="matrix(0.057215644202977006,0,0,0.057215644202977006,39.87930400947498,0)" xlink:href="#aP"/><use transform="matrix(0.057215644202977006,0,0,0.057215644202977006,45.60086842977268,0)" xlink:href="#aN"/><use transform="matrix(0.057215644202977006,0,0,0.057215644202977006,63.909874574725315,0)" xlink:href="#ar"/><use transform="matrix(0.057215644202977006,0,0,0.057215644202977006,75.35300341532073,0)" xlink:href="#aE"/><use transform="matrix(0.057215644202977006,0,0,0.057215644202977006,87.8832294957727,0)" xlink:href="#av"/><use transform="matrix(0.057215644202977006,0,0,0.057215644202977006,99.3263583363681,0)" xlink:href="#aG"/><use transform="matrix(0.057215644202977006,0,0,0.057215644202977006,114.14521018493915,0)" xlink:href="#aC"/><use transform="matrix(0.057215644202977006,0,0,0.057215644202977006,119.86677460523686,0)" xlink:href="#ar"/><use transform="matrix(0.057215644202977006,0,0,0.057215644202977006,131.30990344583225,0)" xlink:href="#aR"/><use transform="matrix(0.057215644202977006,0,0,0.057215644202977006,142.75303228642764,0)" xlink:href="#aR"/><use transform="matrix(0.057215644202977006,0,0,0.057215644202977006,154.19616112702303,0)" xlink:href="#ax"/><use transform="matrix(0.057215644202977006,0,0,0.057215644202977006,159.91772554732074,0)" xlink:href="#aS"/><use transform="matrix(0.057215644202977006,0,0,0.057215644202977006,166.726387207475,0)" xlink:href="#ax"/><use transform="matrix(0.057215644202977006,0,0,0.057215644202977006,172.4479516277727,0)" xlink:href="#aT"/><use transform="matrix(0.057215644202977006,0,0,0.057215644202977006,183.8910804683681,0)" xlink:href="#ar"/><use transform="matrix(0.057215644202977006,0,0,0.057215644202977006,195.3342093089635,0)" xlink:href="#as"/><use transform="matrix(0.057215644202977006,0,0,0.057215644202977006,202.14287096911775,0)" xlink:href="#ax"/><use transform="matrix(0.057215644202977006,0,0,0.057215644202977006,207.86443538941546,0)" xlink:href="#ay"/><use transform="matrix(0.057215644202977006,0,0,0.057215644202977006,220.39466146986743,0)" xlink:href="#az"/><use transform="matrix(0.057215644202977006,0,0,0.057215644202977006,232.9248875503194,0)" xlink:href="#aU"/><use transform="matrix(0.057215644202977006,0,0,0.057215644202977006,238.64645197061708,0)" xlink:href="#ax"/><use transform="matrix(0.057215644202977006,0,0,0.057215644202977006,244.3680163909148,0)" xlink:href="#aw"/><use transform="matrix(0.057215644202977006,0,0,0.057215644202977006,256.89824247136676,0)" xlink:href="#aV"/><use transform="matrix(0.057215644202977006,0,0,0.057215644202977006,268.3413713119622,0)" xlink:href="#az"/><use transform="matrix(0.057215644202977006,0,0,0.057215644202977006,280.8715973924141,0)" xlink:href="#aH"/></g><path fill="#fff" d="M147 0H94L2-248h55l64 206c17-72 42-137 63-206h54" id="aW"/><g id="l"><use transform="matrix(0.057215644202977006,0,0,0.057215644202977006,0,0)" xlink:href="#aW"/><use transform="matrix(0.057215644202977006,0,0,0.057215644202977006,12.587441724654942,0)" xlink:href="#ar"/><use transform="matrix(0.057215644202977006,0,0,0.057215644202977006,24.030570565250343,0)" xlink:href="#aC"/><use transform="matrix(0.057215644202977006,0,0,0.057215644202977006,29.752134985548043,0)" xlink:href="#ax"/><use transform="matrix(0.057215644202977006,0,0,0.057215644202977006,35.47369940584574,0)" xlink:href="#aB"/><use transform="matrix(0.057215644202977006,0,0,0.057215644202977006,48.0039254862977,0)" xlink:href="#ar"/><use transform="matrix(0.057215644202977006,0,0,0.057215644202977006,59.447054326893095,0)" xlink:href="#as"/><use transform="matrix(0.057215644202977006,0,0,0.057215644202977006,66.25571598704737,0)" xlink:href="#ax"/><use transform="matrix(0.057215644202977006,0,0,0.057215644202977006,71.97728040734506,0)" xlink:href="#ay"/><use transform="matrix(0.057215644202977006,0,0,0.057215644202977006,84.50750648779703,0)" xlink:href="#az"/></g><g id="m"><use transform="matrix(0.057215644202977006,0,0,0.057215644202977006,0,0)" xlink:href="#aq"/><use transform="matrix(0.057215644202977006,0,0,0.057215644202977006,14.818851848571045,0)" xlink:href="#ar"/><use transform="matrix(0.057215644202977006,0,0,0.057215644202977006,26.261980689166446,0)" xlink:href="#as"/><use transform="matrix(0.057215644202977006,0,0,0.057215644202977006,33.07064234932071,0)" xlink:href="#ar"/></g><g id="n"><use transform="matrix(0.057215644202977006,0,0,0.057215644202977006,0,0)" xlink:href="#at"/><use transform="matrix(0.057215644202977006,0,0,0.057215644202977006,13.731754608714482,0)" xlink:href="#au"/><use transform="matrix(0.057215644202977006,0,0,0.057215644202977006,21.74194479713126,0)" xlink:href="#av"/><use transform="matrix(0.057215644202977006,0,0,0.057215644202977006,33.18507363772666,0)" xlink:href="#aw"/><use transform="matrix(0.057215644202977006,0,0,0.057215644202977006,45.71529971817863,0)" xlink:href="#ar"/><use transform="matrix(0.057215644202977006,0,0,0.057215644202977006,57.15842855877403,0)" xlink:href="#au"/><use transform="matrix(0.057215644202977006,0,0,0.057215644202977006,65.1686187471908,0)" xlink:href="#ar"/><use transform="matrix(0.057215644202977006,0,0,0.057215644202977006,76.61174758778621,0)" xlink:href="#as"/><use transform="matrix(0.057215644202977006,0,0,0.057215644202977006,83.42040924794047,0)" xlink:href="#ax"/><use transform="matrix(0.057215644202977006,0,0,0.057215644202977006,89.14197366823817,0)" xlink:href="#ay"/><use transform="matrix(0.057215644202977006,0,0,0.057215644202977006,101.67219974869013,0)" xlink:href="#az"/></g><path fill="#a9afb8" d="M24-248c120-7 223 5 221 122C244-46 201 0 124 0H24v-248zM76-40c74 7 117-18 117-86 0-67-45-88-117-82v168" id="aX"/><path fill="#a9afb8" d="M110-194c64 0 96 36 96 99 0 64-35 99-97 99-61 0-95-36-95-99 0-62 34-99 96-99zm-1 164c35 0 45-28 45-65 0-40-10-65-43-65-34 0-45 26-45 65 0 36 10 65 43 65" id="aY"/><path fill="#a9afb8" d="M195-6C206 82 75 100 31 46c-4-6-6-13-8-21l49-6c3 16 16 24 34 25 40 0 42-37 40-79-11 22-30 35-61 35-53 0-70-43-70-97 0-56 18-96 73-97 30 0 46 14 59 34l2-30h47zm-90-29c32 0 41-27 41-63 0-35-9-62-40-62-32 0-39 29-40 63 0 36 9 62 39 62" id="aZ"/><g id="o"><use transform="matrix(0.0728395061728395,0,0,0.0728395061728395,0,0)" xlink:href="#aX"/><use transform="matrix(0.0728395061728395,0,0,0.0728395061728395,18.86543209876543,0)" xlink:href="#aY"/><use transform="matrix(0.0728395061728395,0,0,0.0728395061728395,34.81728395061728,0)" xlink:href="#aZ"/></g><path fill="#a9afb8" d="M24 0v-248h52V0H24" id="ba"/><path fill="#a9afb8" d="M220-157c-53 9-28 100-34 157h-49v-107c1-27-5-49-29-50C55-147 81-57 75 0H25l-1-190h47c2 12-1 28 3 38 10-53 101-56 108 0 13-22 24-43 59-42 82 1 51 116 57 194h-49v-107c-1-25-5-48-29-50" id="bb"/><path fill="#a9afb8" d="M133-34C117-15 103 5 69 4 32 3 11-16 11-54c-1-60 55-63 116-61 1-26-3-47-28-47-18 1-26 9-28 27l-52-2c7-38 36-58 82-57s74 22 75 68l1 82c-1 14 12 18 25 15v27c-30 8-71 5-69-32zm-48 3c29 0 43-24 42-57-32 0-66-3-65 30 0 17 8 27 23 27" id="bc"/><path fill="#a9afb8" d="M185-48c-13 30-37 53-82 52C43 2 14-33 14-96s30-98 90-98c62 0 83 45 84 108H66c0 31 8 55 39 56 18 0 30-7 34-22zm-45-69c5-46-57-63-70-21-2 6-4 13-4 21h74" id="bd"/><g id="p"><use transform="matrix(0.0728395061728395,0,0,0.0728395061728395,0,0)" xlink:href="#ba"/><use transform="matrix(0.0728395061728395,0,0,0.0728395061728395,7.28395061728395,0)" xlink:href="#bb"/><use transform="matrix(0.0728395061728395,0,0,0.0728395061728395,30.59259259259259,0)" xlink:href="#bc"/><use transform="matrix(0.0728395061728395,0,0,0.0728395061728395,45.160493827160494,0)" xlink:href="#aZ"/><use transform="matrix(0.0728395061728395,0,0,0.0728395061728395,61.11234567901234,0)" xlink:href="#bd"/></g><path fill="#a9afb8" d="M67-125c0 53 21 87 73 88 37 1 54-22 65-47l45 17C233-25 199 4 140 4 58 4 20-42 15-125 8-235 124-281 211-232c18 10 29 29 36 50l-46 12c-8-25-30-41-62-41-52 0-71 34-72 86" id="be"/><path fill="#a9afb8" d="M25 0v-261h50V0H25" id="bf"/><path fill="#a9afb8" d="M137-138c1-29-70-34-71-4 15 46 118 7 119 86 1 83-164 76-172 9l43-7c4 19 20 25 44 25 33 8 57-30 24-41C81-84 22-81 20-136c-2-80 154-74 161-7" id="bg"/><path fill="#a9afb8" d="M25-224v-37h50v37H25zM25 0v-190h50V0H25" id="bh"/><path fill="#a9afb8" d="M121-226c-27-7-43 5-38 36h38v33H83V0H34v-157H6v-33h28c-9-59 32-81 87-68v32" id="bi"/><path fill="#a9afb8" d="M190-63c-7 42-38 67-86 67-59 0-84-38-90-98-12-110 154-137 174-36l-49 2c-2-19-15-32-35-32-30 0-35 28-38 64-6 74 65 87 74 30" id="bj"/><path fill="#a9afb8" d="M115-3C79 11 28 4 28-45v-112H4v-33h27l15-45h31v45h36v33H77v99c-1 23 16 31 38 25v30" id="bk"/><path fill="#a9afb8" d="M135-194c87-1 58 113 63 194h-50c-7-57 23-157-34-157-59 0-34 97-39 157H25l-1-190h47c2 12-1 28 3 38 12-26 28-41 61-42" id="bl"/><g id="q"><use transform="matrix(0.0728395061728395,0,0,0.0728395061728395,0,0)" xlink:href="#be"/><use transform="matrix(0.0728395061728395,0,0,0.0728395061728395,18.86543209876543,0)" xlink:href="#bf"/><use transform="matrix(0.0728395061728395,0,0,0.0728395061728395,26.14938271604938,0)" xlink:href="#bc"/><use transform="matrix(0.0728395061728395,0,0,0.0728395061728395,40.717283950617286,0)" xlink:href="#bg"/><use transform="matrix(0.0728395061728395,0,0,0.0728395061728395,55.28518518518518,0)" xlink:href="#bg"/><use transform="matrix(0.0728395061728395,0,0,0.0728395061728395,69.85308641975308,0)" xlink:href="#bh"/><use transform="matrix(0.0728395061728395,0,0,0.0728395061728395,77.13703703703703,0)" xlink:href="#bi"/><use transform="matrix(0.0728395061728395,0,0,0.0728395061728395,85.80493827160494,0)" xlink:href="#bh"/><use transform="matrix(0.0728395061728395,0,0,0.0728395061728395,93.08888888888889,0)" xlink:href="#bj"/><use transform="matrix(0.0728395061728395,0,0,0.0728395061728395,107.65679012345679,0)" xlink:href="#bc"/><use transform="matrix(0.0728395061728395,0,0,0.0728395061728395,122.22469135802469,0)" xlink:href="#bk"/><use transform="matrix(0.0728395061728395,0,0,0.0728395061728395,130.8925925925926,0)" xlink:href="#bh"/><use transform="matrix(0.0728395061728395,0,0,0.0728395061728395,138.17654320987654,0)" xlink:href="#aY"/><use transform="matrix(0.0728395061728395,0,0,0.0728395061728395,154.12839506172838,0)" xlink:href="#bl"/></g><path fill="#a9afb8" d="M230 0l2-204L168 0h-37L68-204 70 0H24v-248h70l56 185 57-185h69V0h-46" id="bm"/><path fill="#a9afb8" d="M88-194c31-1 46 15 58 34l-1-101h50l1 261h-48c-2-10 0-23-3-31C134-8 116 4 84 4 32 4 16-41 15-95c0-56 19-97 73-99zm17 164c33 0 40-30 41-66 1-37-9-64-41-64s-38 30-39 65c0 43 13 65 39 65" id="bn"/><g id="r"><use transform="matrix(0.0728395061728395,0,0,0.0728395061728395,0,0)" xlink:href="#bm"/><use transform="matrix(0.0728395061728395,0,0,0.0728395061728395,21.77901234567901,0)" xlink:href="#aY"/><use transform="matrix(0.0728395061728395,0,0,0.0728395061728395,37.73086419753086,0)" xlink:href="#bn"/><use transform="matrix(0.0728395061728395,0,0,0.0728395061728395,53.68271604938271,0)" xlink:href="#bd"/><use transform="matrix(0.0728395061728395,0,0,0.0728395061728395,68.25061728395062,0)" xlink:href="#bf"/></g><path fill="#a9afb8" d="M275 0h-61l-44-196L126 0H64L0-248h53L97-49l45-199h58l43 199 44-199h52" id="bo"/><path fill="#a9afb8" d="M135-150c-39-12-60 13-60 57V0H25l-1-190h47c2 13-1 29 3 40 6-28 27-53 61-41v41" id="bp"/><path fill="#a9afb8" d="M147 0L96-86 75-71V0H25v-261h50v150l67-79h53l-66 74L201 0h-54" id="bq"/><path fill="#a9afb8" d="M231 0h-52l-39-155L100 0H48L-1-190h46L77-45c9-52 24-97 36-145h53l37 145 32-145h46" id="br"/><g id="s"><use transform="matrix(0.0728395061728395,0,0,0.0728395061728395,0,0)" xlink:href="#bo"/><use transform="matrix(0.0728395061728395,0,0,0.0728395061728395,24.182716049382716,0)" xlink:href="#aY"/><use transform="matrix(0.0728395061728395,0,0,0.0728395061728395,40.13456790123457,0)" xlink:href="#bp"/><use transform="matrix(0.0728395061728395,0,0,0.0728395061728395,50.3320987654321,0)" xlink:href="#bq"/><use transform="matrix(0.0728395061728395,0,0,0.0728395061728395,64.9,0)" xlink:href="#bi"/><use transform="matrix(0.0728395061728395,0,0,0.0728395061728395,73.56790123456791,0)" xlink:href="#bf"/><use transform="matrix(0.0728395061728395,0,0,0.0728395061728395,80.85185185185186,0)" xlink:href="#aY"/><use transform="matrix(0.0728395061728395,0,0,0.0728395061728395,96.80370370370372,0)" xlink:href="#br"/></g><path fill="#a9afb8" d="M160-131c35 5 61 23 61 61C221 17 115-2 30 0v-248c76 3 177-17 177 60 0 33-19 50-47 57zm-97-11c50-1 110 9 110-42 0-47-63-36-110-37v79zm0 115c55-2 124 14 124-45 0-56-70-42-124-44v89" id="bs"/><path fill="#a9afb8" d="M33 0v-248h34V0H33" id="bt"/><path fill="#a9afb8" d="M153-248C145-148 188 4 80 4 36 3 13-21 6-62l32-5c4 25 16 42 43 43 27 0 39-20 39-49v-147H72v-28h81" id="bu"/><path fill="#a9afb8" d="M140-251c81 0 123 46 123 126C263-46 219 4 140 4 59 4 17-45 17-125s42-126 123-126zm0 227c63 0 89-41 89-101s-29-99-89-99c-61 0-89 39-89 99S79-25 140-24" id="bv"/><path fill="#a9afb8" d="M137-103V0h-34v-103L8-248h37l75 118 75-118h37" id="bw"/><path fill="#a9afb8" d="M30 0v-248h187v28H63v79h144v27H63v87h162V0H30" id="bx"/><path fill="#a9afb8" d="M127-220V0H93v-220H8v-28h204v28h-85" id="by"/><path fill="#a9afb8" d="M205 0l-28-72H64L36 0H1l101-248h38L239 0h-34zm-38-99l-47-123c-12 45-31 82-46 123h93" id="bz"/><g id="t"><use transform="matrix(0.04248971193415638,0,0,0.04248971193415638,0,0)" xlink:href="#bs"/><use transform="matrix(0.04248971193415638,0,0,0.04248971193415638,10.19753086419753,0)" xlink:href="#bt"/><use transform="matrix(0.04248971193415638,0,0,0.04248971193415638,14.446502057613166,0)" xlink:href="#bu"/><use transform="matrix(0.04248971193415638,0,0,0.04248971193415638,22.094650205761315,0)" xlink:href="#bv"/><use transform="matrix(0.04248971193415638,0,0,0.04248971193415638,33.9917695473251,0)" xlink:href="#bw"/><use transform="matrix(0.04248971193415638,0,0,0.04248971193415638,44.18930041152263,0)" xlink:href="#bx"/><use transform="matrix(0.04248971193415638,0,0,0.04248971193415638,54.38683127572016,0)" xlink:href="#by"/><use transform="matrix(0.04248971193415638,0,0,0.04248971193415638,62.5448559670782,0)" xlink:href="#bz"/></g><path fill="#a9afb8" d="M194 0L95-120 63-95V0H30v-248h33v124l119-124h40L117-140 236 0h-42" id="bA"/><path fill="#a9afb8" d="M30 0v-248h33v221h125V0H30" id="bB"/><g id="u"><use transform="matrix(0.04248971193415638,0,0,0.04248971193415638,0,0)" xlink:href="#bA"/><use transform="matrix(0.04248971193415638,0,0,0.04248971193415638,10.19753086419753,0)" xlink:href="#bz"/><use transform="matrix(0.04248971193415638,0,0,0.04248971193415638,19.247839506172838,0)" xlink:href="#bw"/><use transform="matrix(0.04248971193415638,0,0,0.04248971193415638,28.29814814814814,0)" xlink:href="#bz"/><use transform="matrix(0.04248971193415638,0,0,0.04248971193415638,38.495679012345676,0)" xlink:href="#bB"/></g><path fill="#a9afb8" d="M32 76v-337h29V76H32" id="bC"/><use transform="matrix(0.04248971193415638,0,0,0.04248971193415638,0,0)" xlink:href="#bC" id="v"/><path fill="#a9afb8" d="M84 4C-5 8 30-112 23-190h32v120c0 31 7 50 39 49 72-2 45-101 50-169h31l1 190h-30c-1-10 1-25-2-33-11 22-28 36-60 37" id="bD"/><path fill="#a9afb8" d="M177-190C167-65 218 103 67 71c-23-6-38-20-44-43l32-5c15 47 100 32 89-28v-30C133-14 115 1 83 1 29 1 15-40 15-95c0-56 16-97 71-98 29-1 48 16 59 35 1-10 0-23 2-32h30zM94-22c36 0 50-32 50-73 0-42-14-75-50-75-39 0-46 34-46 75s6 73 46 73" id="bE"/><path fill="#a9afb8" d="M135-143c-3-34-86-38-87 0 15 53 115 12 119 90S17 21 10-45l28-5c4 36 97 45 98 0-10-56-113-15-118-90-4-57 82-63 122-42 12 7 21 19 24 35" id="bF"/><path fill="#a9afb8" d="M59-47c-2 24 18 29 38 22v24C64 9 27 4 27-40v-127H5v-23h24l9-43h21v43h35v23H59v120" id="bG"/><g id="w"><use transform="matrix(0.04248971193415638,0,0,0.04248971193415638,0,0)" xlink:href="#bz"/><use transform="matrix(0.04248971193415638,0,0,0.04248971193415638,10.19753086419753,0)" xlink:href="#bD"/><use transform="matrix(0.04248971193415638,0,0,0.04248971193415638,18.695473251028805,0)" xlink:href="#bE"/><use transform="matrix(0.04248971193415638,0,0,0.04248971193415638,27.193415637860078,0)" xlink:href="#bD"/><use transform="matrix(0.04248971193415638,0,0,0.04248971193415638,35.691358024691354,0)" xlink:href="#bF"/><use transform="matrix(0.04248971193415638,0,0,0.04248971193415638,43.3395061728395,0)" xlink:href="#bG"/></g><path fill="#a9afb8" d="M101-251c82-7 93 87 43 132L82-64C71-53 59-42 53-27h129V0H18c2-99 128-94 128-182 0-28-16-43-45-43s-46 15-49 41l-32-3c6-41 34-60 81-64" id="bH"/><path fill="#a9afb8" d="M27 0v-27h64v-190l-56 39v-29l58-41h29v221h61V0H27" id="bI"/><path fill="#a9afb8" d="M68-38c1 34 0 65-14 84H32c9-13 17-26 17-46H33v-38h35" id="bJ"/><g id="x"><use transform="matrix(0.04248971193415638,0,0,0.04248971193415638,0,0)" xlink:href="#bH"/><use transform="matrix(0.04248971193415638,0,0,0.04248971193415638,8.497942386831275,0)" xlink:href="#bI"/><use transform="matrix(0.04248971193415638,0,0,0.04248971193415638,16.99588477366255,0)" xlink:href="#bJ"/></g><path fill="#a9afb8" d="M101-251c68 0 85 55 85 127S166 4 100 4C33 4 14-52 14-124c0-73 17-127 87-127zm-1 229c47 0 54-49 54-102s-4-102-53-102c-51 0-55 48-55 102 0 53 5 102 54 102" id="bK"/><path fill="#a9afb8" d="M126-127c33 6 58 20 58 59 0 88-139 92-164 29-3-8-5-16-6-25l32-3c6 27 21 44 54 44 32 0 52-15 52-46 0-38-36-46-79-43v-28c39 1 72-4 72-42 0-27-17-43-46-43-28 0-47 15-49 41l-32-3c6-42 35-63 81-64 48-1 79 21 79 65 0 36-21 52-52 59" id="bL"/><g id="y"><use transform="matrix(0.04248971193415638,0,0,0.04248971193415638,0,0)" xlink:href="#bH"/><use transform="matrix(0.04248971193415638,0,0,0.04248971193415638,8.497942386831275,0)" xlink:href="#bK"/><use transform="matrix(0.04248971193415638,0,0,0.04248971193415638,16.99588477366255,0)" xlink:href="#bH"/><use transform="matrix(0.04248971193415638,0,0,0.04248971193415638,25.493827160493822,0)" xlink:href="#bL"/></g><path fill="#fff" d="M199 0l-22-63H83L61 0H9l90-248h61L250 0h-51zm-33-102l-36-108c-10 38-24 72-36 108h72" id="bM"/><g id="z"><use transform="matrix(0.057215644202977006,0,0,0.057215644202977006,0,0)" xlink:href="#bM"/><use transform="matrix(0.057215644202977006,0,0,0.057215644202977006,14.818851848571045,0)" xlink:href="#aQ"/><use transform="matrix(0.057215644202977006,0,0,0.057215644202977006,29.63770369714209,0)" xlink:href="#aG"/></g><g id="A"><use transform="matrix(0.057215644202977006,0,0,0.057215644202977006,0,0)" xlink:href="#aT"/><use transform="matrix(0.057215644202977006,0,0,0.057215644202977006,11.443128840595401,0)" xlink:href="#aR"/><use transform="matrix(0.057215644202977006,0,0,0.057215644202977006,22.886257681190802,0)" xlink:href="#aK"/></g><path fill="#edf5ff" d="M24-248c120-7 223 5 221 122C244-46 201 0 124 0H24v-248zM76-40c74 7 117-18 117-86 0-67-45-88-117-82v168" id="bN"/><path fill="#edf5ff" d="M110-194c64 0 96 36 96 99 0 64-35 99-97 99-61 0-95-36-95-99 0-62 34-99 96-99zm-1 164c35 0 45-28 45-65 0-40-10-65-43-65-34 0-45 26-45 65 0 36 10 65 43 65" id="bO"/><path fill="#edf5ff" d="M195-6C206 82 75 100 31 46c-4-6-6-13-8-21l49-6c3 16 16 24 34 25 40 0 42-37 40-79-11 22-30 35-61 35-53 0-70-43-70-97 0-56 18-96 73-97 30 0 46 14 59 34l2-30h47zm-90-29c32 0 41-27 41-63 0-35-9-62-40-62-32 0-39 29-40 63 0 36 9 62 39 62" id="bP"/><path fill="#edf5ff" d="M88-194c31-1 46 15 58 34l-1-101h50l1 261h-48c-2-10 0-23-3-31C134-8 116 4 84 4 32 4 16-41 15-95c0-56 19-97 73-99zm17 164c33 0 40-30 41-66 1-37-9-64-41-64s-38 30-39 65c0 43 13 65 39 65" id="bQ"/><path fill="#edf5ff" d="M133-34C117-15 103 5 69 4 32 3 11-16 11-54c-1-60 55-63 116-61 1-26-3-47-28-47-18 1-26 9-28 27l-52-2c7-38 36-58 82-57s74 22 75 68l1 82c-1 14 12 18 25 15v27c-30 8-71 5-69-32zm-48 3c29 0 43-24 42-57-32 0-66-3-65 30 0 17 8 27 23 27" id="bR"/><path fill="#edf5ff" d="M115-3C79 11 28 4 28-45v-112H4v-33h27l15-45h31v45h36v33H77v99c-1 23 16 31 38 25v30" id="bS"/><g id="B"><use transform="matrix(0.05,0,0,0.05,0,0)" xlink:href="#bN"/><use transform="matrix(0.05,0,0,0.05,12.950000000000001,0)" xlink:href="#bO"/><use transform="matrix(0.05,0,0,0.05,23.900000000000002,0)" xlink:href="#bP"/><use transform="matrix(0.05,0,0,0.05,34.85,0)" xlink:href="#bQ"/><use transform="matrix(0.05,0,0,0.05,45.800000000000004,0)" xlink:href="#bR"/><use transform="matrix(0.05,0,0,0.05,55.800000000000004,0)" xlink:href="#bS"/><use transform="matrix(0.05,0,0,0.05,61.75,0)" xlink:href="#bR"/></g><path fill="#3a414a" d="M24-248c120-7 223 5 221 122C244-46 201 0 124 0H24v-248zM76-40c74 7 117-18 117-86 0-67-45-88-117-82v168" id="bT"/><path fill="#3a414a" d="M182-130c37 4 62 22 62 59C244 23 116-4 24 0v-248c84 5 203-23 205 63 0 31-19 50-47 55zM76-148c40-3 101 13 101-30 0-44-60-28-101-31v61zm0 110c48-3 116 14 116-37 0-48-69-32-116-35v72" id="bU"/><path fill="#3a414a" d="M25 0v-261h50V0H25" id="bV"/><path fill="#3a414a" d="M110-194c64 0 96 36 96 99 0 64-35 99-97 99-61 0-95-36-95-99 0-62 34-99 96-99zm-1 164c35 0 45-28 45-65 0-40-10-65-43-65-34 0-45 26-45 65 0 36 10 65 43 65" id="bW"/><path fill="#3a414a" d="M133-34C117-15 103 5 69 4 32 3 11-16 11-54c-1-60 55-63 116-61 1-26-3-47-28-47-18 1-26 9-28 27l-52-2c7-38 36-58 82-57s74 22 75 68l1 82c-1 14 12 18 25 15v27c-30 8-71 5-69-32zm-48 3c29 0 43-24 42-57-32 0-66-3-65 30 0 17 8 27 23 27" id="bX"/><path fill="#3a414a" d="M88-194c31-1 46 15 58 34l-1-101h50l1 261h-48c-2-10 0-23-3-31C134-8 116 4 84 4 32 4 16-41 15-95c0-56 19-97 73-99zm17 164c33 0 40-30 41-66 1-37-9-64-41-64s-38 30-39 65c0 43 13 65 39 65" id="bY"/><path fill="#3a414a" d="M185-48c-13 30-37 53-82 52C43 2 14-33 14-96s30-98 90-98c62 0 83 45 84 108H66c0 31 8 55 39 56 18 0 30-7 34-22zm-45-69c5-46-57-63-70-21-2 6-4 13-4 21h74" id="bZ"/><path fill="#3a414a" d="M135-150c-39-12-60 13-60 57V0H25l-1-190h47c2 13-1 29 3 40 6-28 27-53 61-41v41" id="ca"/><path fill="#3a414a" d="M24 0v-54h51V0H24" id="cb"/><path fill="#3a414a" d="M135-194c53 0 70 44 70 98 0 56-19 98-73 100-31 1-45-17-59-34 3 33 2 69 2 105H25l-1-265h48c2 10 0 23 3 31 11-24 29-35 60-35zM114-30c33 0 39-31 40-66 0-38-9-64-40-64-56 0-55 130 0 130" id="cc"/><path fill="#3a414a" d="M123 10C108 53 80 86 19 72V37c35 8 53-11 59-39L3-190h52l48 148c12-52 28-100 44-148h51" id="cd"/><g id="C"><use transform="matrix(0.05,0,0,0.05,0,0)" xlink:href="#bT"/><use transform="matrix(0.05,0,0,0.05,12.950000000000001,0)" xlink:href="#bU"/><use transform="matrix(0.05,0,0,0.05,25.900000000000002,0)" xlink:href="#bV"/><use transform="matrix(0.05,0,0,0.05,30.900000000000002,0)" xlink:href="#bW"/><use transform="matrix(0.05,0,0,0.05,41.85,0)" xlink:href="#bX"/><use transform="matrix(0.05,0,0,0.05,51.85,0)" xlink:href="#bY"/><use transform="matrix(0.05,0,0,0.05,62.800000000000004,0)" xlink:href="#bZ"/><use transform="matrix(0.05,0,0,0.05,72.80000000000001,0)" xlink:href="#ca"/><use transform="matrix(0.05,0,0,0.05,78.80000000000001,0)" xlink:href="#cb"/><use transform="matrix(0.05,0,0,0.05,83.80000000000001,0)" xlink:href="#cc"/><use transform="matrix(0.05,0,0,0.05,94.75000000000001,0)" xlink:href="#cd"/></g><path fill="#fff" d="M4 7l51-268h42L46 7H4" id="ce"/><g id="D"><use transform="matrix(0.05,0,0,0.05,0,0)" xlink:href="#aD"/><use transform="matrix(0.05,0,0,0.05,9.950000000000001,0)" xlink:href="#au"/><use transform="matrix(0.05,0,0,0.05,16.950000000000003,0)" xlink:href="#ar"/><use transform="matrix(0.05,0,0,0.05,26.950000000000003,0)" xlink:href="#ax"/><use transform="matrix(0.05,0,0,0.05,31.950000000000003,0)" xlink:href="#az"/><use transform="matrix(0.05,0,0,0.05,42.900000000000006,0)" xlink:href="#ce"/><use transform="matrix(0.05,0,0,0.05,47.900000000000006,0)" xlink:href="#aD"/><use transform="matrix(0.05,0,0,0.05,57.5,0)" xlink:href="#av"/><use transform="matrix(0.05,0,0,0.05,67.5,0)" xlink:href="#aR"/><use transform="matrix(0.05,0,0,0.05,77.5,0)" xlink:href="#as"/></g><g id="E"><use transform="matrix(0.05,0,0,0.05,0,0)" xlink:href="#aP"/><use transform="matrix(0.05,0,0,0.05,5,0)" xlink:href="#aN"/><use transform="matrix(0.05,0,0,0.05,21,0)" xlink:href="#ar"/><use transform="matrix(0.05,0,0,0.05,31,0)" xlink:href="#aE"/><use transform="matrix(0.05,0,0,0.05,41.95,0)" xlink:href="#av"/></g><g id="F"><use transform="matrix(0.05,0,0,0.05,0,0)" xlink:href="#aS"/><use transform="matrix(0.05,0,0,0.05,5.95,0)" xlink:href="#ay"/><use transform="matrix(0.05,0,0,0.05,16.900000000000002,0)" xlink:href="#aC"/><use transform="matrix(0.05,0,0,0.05,21.900000000000002,0)" xlink:href="#aB"/><use transform="matrix(0.05,0,0,0.05,32.85,0)" xlink:href="#av"/><use transform="matrix(0.05,0,0,0.05,42.85,0)" xlink:href="#au"/><use transform="matrix(0.05,0,0,0.05,49.85,0)" xlink:href="#aR"/></g><path fill="#3a414a" d="M136-208V0H84v-208H4v-40h212v40h-80" id="cf"/><path fill="#3a414a" d="M25-224v-37h50v37H25zM25 0v-190h50V0H25" id="cg"/><path fill="#3a414a" d="M135-194c87-1 58 113 63 194h-50c-7-57 23-157-34-157-59 0-34 97-39 157H25l-1-190h47c2 12-1 28 3 38 12-26 28-41 61-42" id="ch"/><path fill="#3a414a" d="M137-138c1-29-70-34-71-4 15 46 118 7 119 86 1 83-164 76-172 9l43-7c4 19 20 25 44 25 33 8 57-30 24-41C81-84 22-81 20-136c-2-80 154-74 161-7" id="ci"/><path fill="#3a414a" d="M115-3C79 11 28 4 28-45v-112H4v-33h27l15-45h31v45h36v33H77v99c-1 23 16 31 38 25v30" id="cj"/><path fill="#3a414a" d="M24-248c93 1 206-16 204 79-1 75-69 88-152 82V0H24v-248zm52 121c47 0 100 7 100-41 0-47-54-39-100-39v80" id="ck"/><g id="G"><use transform="matrix(0.05,0,0,0.05,0,0)" xlink:href="#cf"/><use transform="matrix(0.05,0,0,0.05,9.950000000000001,0)" xlink:href="#ca"/><use transform="matrix(0.05,0,0,0.05,16.950000000000003,0)" xlink:href="#bX"/><use transform="matrix(0.05,0,0,0.05,26.950000000000003,0)" xlink:href="#cg"/><use transform="matrix(0.05,0,0,0.05,31.950000000000003,0)" xlink:href="#ch"/><use transform="matrix(0.05,0,0,0.05,42.900000000000006,0)" xlink:href="#cf"/><use transform="matrix(0.05,0,0,0.05,52.5,0)" xlink:href="#bZ"/><use transform="matrix(0.05,0,0,0.05,62.5,0)" xlink:href="#ci"/><use transform="matrix(0.05,0,0,0.05,72.5,0)" xlink:href="#cj"/><use transform="matrix(0.05,0,0,0.05,78.45,0)" xlink:href="#bT"/><use transform="matrix(0.05,0,0,0.05,91.4,0)" xlink:href="#bX"/><use transform="matrix(0.05,0,0,0.05,101.4,0)" xlink:href="#cj"/><use transform="matrix(0.05,0,0,0.05,107.35000000000001,0)" xlink:href="#bX"/><use transform="matrix(0.05,0,0,0.05,117.35000000000001,0)" xlink:href="#ck"/><use transform="matrix(0.05,0,0,0.05,129.35000000000002,0)" xlink:href="#ca"/><use transform="matrix(0.05,0,0,0.05,136.35000000000002,0)" xlink:href="#bZ"/><use transform="matrix(0.05,0,0,0.05,146.35000000000002,0)" xlink:href="#cc"/><use transform="matrix(0.05,0,0,0.05,157.3,0)" xlink:href="#cb"/><use transform="matrix(0.05,0,0,0.05,162.3,0)" xlink:href="#cc"/><use transform="matrix(0.05,0,0,0.05,173.25,0)" xlink:href="#cd"/></g><path fill="#fff" d="M114-157C55-157 80-60 75 0H25v-261h50l-1 109c12-26 28-41 61-42 86-1 58 113 63 194h-50c-7-57 23-157-34-157" id="cl"/><path fill="#fff" d="M139-81c0-46-55-55-73-27H18l9-140h149v37H72l-4 63c44-38 133-4 122 66C201 21 21 35 11-62l49-4c5 18 15 30 39 30 26 0 40-18 40-45" id="cm"/><g id="H"><use transform="matrix(0.05,0,0,0.05,0,0)" xlink:href="#aA"/><use transform="matrix(0.05,0,0,0.05,14.950000000000001,0)" xlink:href="#ay"/><use transform="matrix(0.05,0,0,0.05,25.900000000000002,0)" xlink:href="#aB"/><use transform="matrix(0.05,0,0,0.05,36.85,0)" xlink:href="#av"/><use transform="matrix(0.05,0,0,0.05,46.85,0)" xlink:href="#aC"/><use transform="matrix(0.05,0,0,0.05,51.85,0)" xlink:href="#aU"/><use transform="matrix(0.05,0,0,0.05,56.85,0)" xlink:href="#cl"/><use transform="matrix(0.05,0,0,0.05,67.8,0)" xlink:href="#cm"/></g><path fill="#3a414a" d="M140-251c80 0 125 45 125 126S219 4 139 4C58 4 15-44 15-125s44-126 125-126zm-1 214c52 0 73-35 73-88 0-50-21-86-72-86-52 0-73 35-73 86s22 88 72 88" id="cn"/><path fill="#3a414a" d="M85 4C-2 5 27-109 22-190h50c7 57-23 150 33 157 60-5 35-97 40-157h50l1 190h-47c-2-12 1-28-3-38-12 25-28 42-61 42" id="co"/><g id="I"><use transform="matrix(0.056172839506172835,0,0,0.056172839506172835,0,0)" xlink:href="#cn"/><use transform="matrix(0.056172839506172835,0,0,0.056172839506172835,15.728395061728394,0)" xlink:href="#co"/><use transform="matrix(0.056172839506172835,0,0,0.056172839506172835,28.030246913580243,0)" xlink:href="#cj"/><use transform="matrix(0.056172839506172835,0,0,0.056172839506172835,34.71481481481481,0)" xlink:href="#cc"/><use transform="matrix(0.056172839506172835,0,0,0.056172839506172835,47.01666666666666,0)" xlink:href="#co"/><use transform="matrix(0.056172839506172835,0,0,0.056172839506172835,59.318518518518516,0)" xlink:href="#cj"/></g><path fill="#3a414a" d="M220-157c-53 9-28 100-34 157h-49v-107c1-27-5-49-29-50C55-147 81-57 75 0H25l-1-190h47c2 12-1 28 3 38 10-53 101-56 108 0 13-22 24-43 59-42 82 1 51 116 57 194h-49v-107c-1-25-5-48-29-50" id="cp"/><g id="J"><use transform="matrix(0.056172839506172835,0,0,0.056172839506172835,0,0)" xlink:href="#cp"/><use transform="matrix(0.056172839506172835,0,0,0.056172839506172835,17.975308641975307,0)" xlink:href="#bW"/><use transform="matrix(0.056172839506172835,0,0,0.056172839506172835,30.277160493827157,0)" xlink:href="#bY"/><use transform="matrix(0.056172839506172835,0,0,0.056172839506172835,42.579012345679004,0)" xlink:href="#bZ"/><use transform="matrix(0.056172839506172835,0,0,0.056172839506172835,53.813580246913574,0)" xlink:href="#bV"/></g><path fill="#3a414a" d="M128 0H69L1-190h53L99-40l48-150h52" id="cq"/><g id="K"><use transform="matrix(0.056172839506172835,0,0,0.056172839506172835,0,0)" xlink:href="#bZ"/><use transform="matrix(0.056172839506172835,0,0,0.056172839506172835,11.234567901234566,0)" xlink:href="#cq"/><use transform="matrix(0.056172839506172835,0,0,0.056172839506172835,22.469135802469133,0)" xlink:href="#bX"/><use transform="matrix(0.056172839506172835,0,0,0.056172839506172835,33.703703703703695,0)" xlink:href="#bV"/><use transform="matrix(0.056172839506172835,0,0,0.056172839506172835,39.32098765432098,0)" xlink:href="#co"/><use transform="matrix(0.056172839506172835,0,0,0.056172839506172835,51.62283950617283,0)" xlink:href="#bX"/><use transform="matrix(0.056172839506172835,0,0,0.056172839506172835,62.857407407407386,0)" xlink:href="#cj"/><use transform="matrix(0.056172839506172835,0,0,0.056172839506172835,69.54197530864197,0)" xlink:href="#cg"/><use transform="matrix(0.056172839506172835,0,0,0.056172839506172835,75.15925925925924,0)" xlink:href="#bW"/><use transform="matrix(0.056172839506172835,0,0,0.056172839506172835,87.4611111111111,0)" xlink:href="#ch"/></g><path fill="#3a414a" d="M121-226c-27-7-43 5-38 36h38v33H83V0H34v-157H6v-33h28c-9-59 32-81 87-68v32" id="cr"/><g id="L"><use transform="matrix(0.056172839506172835,0,0,0.056172839506172835,0,0)" xlink:href="#cr"/><use transform="matrix(0.056172839506172835,0,0,0.056172839506172835,6.684567901234567,0)" xlink:href="#cg"/><use transform="matrix(0.056172839506172835,0,0,0.056172839506172835,12.30185185185185,0)" xlink:href="#bV"/><use transform="matrix(0.056172839506172835,0,0,0.056172839506172835,17.919135802469135,0)" xlink:href="#bZ"/><use transform="matrix(0.056172839506172835,0,0,0.056172839506172835,29.1537037037037,0)" xlink:href="#ci"/></g><path fill="#3a414a" d="M4 7l51-268h42L46 7H4" id="cs"/><path fill="#3a414a" d="M195-6C206 82 75 100 31 46c-4-6-6-13-8-21l49-6c3 16 16 24 34 25 40 0 42-37 40-79-11 22-30 35-61 35-53 0-70-43-70-97 0-56 18-96 73-97 30 0 46 14 59 34l2-30h47zm-90-29c32 0 41-27 41-63 0-35-9-62-40-62-32 0-39 29-40 63 0 36 9 62 39 62" id="ct"/><g id="M"><use transform="matrix(0.056172839506172835,0,0,0.056172839506172835,0,0)" xlink:href="#cs"/><use transform="matrix(0.056172839506172835,0,0,0.056172839506172835,5.617283950617283,0)" xlink:href="#cj"/><use transform="matrix(0.056172839506172835,0,0,0.056172839506172835,12.30185185185185,0)" xlink:href="#ca"/><use transform="matrix(0.056172839506172835,0,0,0.056172839506172835,20.166049382716047,0)" xlink:href="#bX"/><use transform="matrix(0.056172839506172835,0,0,0.056172839506172835,31.400617283950616,0)" xlink:href="#cg"/><use transform="matrix(0.056172839506172835,0,0,0.056172839506172835,37.017901234567894,0)" xlink:href="#ch"/><use transform="matrix(0.056172839506172835,0,0,0.056172839506172835,49.319753086419745,0)" xlink:href="#cg"/><use transform="matrix(0.056172839506172835,0,0,0.056172839506172835,54.93703703703703,0)" xlink:href="#ch"/><use transform="matrix(0.056172839506172835,0,0,0.056172839506172835,67.23888888888888,0)" xlink:href="#ct"/></g><path fill="#3a414a" d="M114-157C55-157 80-60 75 0H25v-261h50l-1 109c12-26 28-41 61-42 86-1 58 113 63 194h-50c-7-57 23-157-34-157" id="cu"/><g id="N"><use transform="matrix(0.056172839506172835,0,0,0.056172839506172835,0,0)" xlink:href="#cu"/><use transform="matrix(0.056172839506172835,0,0,0.056172839506172835,12.30185185185185,0)" xlink:href="#cg"/><use transform="matrix(0.056172839506172835,0,0,0.056172839506172835,17.919135802469135,0)" xlink:href="#ci"/><use transform="matrix(0.056172839506172835,0,0,0.056172839506172835,29.1537037037037,0)" xlink:href="#cj"/><use transform="matrix(0.056172839506172835,0,0,0.056172839506172835,35.83827160493827,0)" xlink:href="#bW"/><use transform="matrix(0.056172839506172835,0,0,0.056172839506172835,48.14012345679012,0)" xlink:href="#ca"/><use transform="matrix(0.056172839506172835,0,0,0.056172839506172835,56.00432098765432,0)" xlink:href="#cd"/></g><g id="O"><use transform="matrix(0.056172839506172835,0,0,0.056172839506172835,0,0)" xlink:href="#bX"/><use transform="matrix(0.056172839506172835,0,0,0.056172839506172835,11.234567901234566,0)" xlink:href="#ch"/><use transform="matrix(0.056172839506172835,0,0,0.056172839506172835,23.536419753086417,0)" xlink:href="#bY"/></g><path fill="#3a414a" d="M135-194c52 0 70 43 70 98 0 56-19 99-73 100-30 1-46-15-58-35L72 0H24l1-261h50v104c11-23 29-37 60-37zM114-30c31 0 40-27 40-66 0-37-7-63-39-63s-41 28-41 65c0 36 8 64 40 64" id="cv"/><g id="P"><use transform="matrix(0.056172839506172835,0,0,0.056172839506172835,0,0)" xlink:href="#bV"/><use transform="matrix(0.056172839506172835,0,0,0.056172839506172835,5.617283950617283,0)" xlink:href="#bX"/><use transform="matrix(0.056172839506172835,0,0,0.056172839506172835,16.851851851851848,0)" xlink:href="#cv"/><use transform="matrix(0.056172839506172835,0,0,0.056172839506172835,29.153703703703695,0)" xlink:href="#bZ"/><use transform="matrix(0.056172839506172835,0,0,0.056172839506172835,40.38827160493827,0)" xlink:href="#bV"/><use transform="matrix(0.056172839506172835,0,0,0.056172839506172835,46.00555555555555,0)" xlink:href="#ci"/></g><path fill="#3a414a" d="M67-93c0 74 22 123 53 168H70C40 30 18-18 18-93s22-123 52-168h50c-32 44-53 94-53 168" id="cw"/><path fill="#3a414a" d="M25-224v-37h50v37H25zM75 22c2 45-34 59-81 51V38c22 5 31-5 31-27v-201h50V22" id="cx"/><path fill="#3a414a" d="M102-93c0 74-22 123-52 168H0C30 29 54-18 53-93c0-74-22-123-53-168h50c30 45 52 94 52 168" id="cy"/><g id="Q"><use transform="matrix(0.056172839506172835,0,0,0.056172839506172835,0,0)" xlink:href="#cw"/><use transform="matrix(0.056172839506172835,0,0,0.056172839506172835,6.684567901234567,0)" xlink:href="#cx"/><use transform="matrix(0.056172839506172835,0,0,0.056172839506172835,12.30185185185185,0)" xlink:href="#ci"/><use transform="matrix(0.056172839506172835,0,0,0.056172839506172835,23.536419753086417,0)" xlink:href="#bW"/><use transform="matrix(0.056172839506172835,0,0,0.056172839506172835,35.83827160493827,0)" xlink:href="#ch"/><use transform="matrix(0.056172839506172835,0,0,0.056172839506172835,48.14012345679012,0)" xlink:href="#cy"/></g><path fill="#3a414a" d="M147 0H94L2-248h55l64 206c17-72 42-137 63-206h54" id="cz"/><g id="R"><use transform="matrix(0.05,0,0,0.05,0,0)" xlink:href="#cz"/><use transform="matrix(0.05,0,0,0.05,11,0)" xlink:href="#bX"/><use transform="matrix(0.05,0,0,0.05,21,0)" xlink:href="#bV"/><use transform="matrix(0.05,0,0,0.05,26,0)" xlink:href="#cg"/><use transform="matrix(0.05,0,0,0.05,31,0)" xlink:href="#bY"/><use transform="matrix(0.05,0,0,0.05,41.95,0)" xlink:href="#bX"/><use transform="matrix(0.05,0,0,0.05,51.95,0)" xlink:href="#cj"/><use transform="matrix(0.05,0,0,0.05,57.900000000000006,0)" xlink:href="#cg"/><use transform="matrix(0.05,0,0,0.05,62.900000000000006,0)" xlink:href="#bW"/><use transform="matrix(0.05,0,0,0.05,73.85000000000001,0)" xlink:href="#ch"/><use transform="matrix(0.05,0,0,0.05,84.80000000000001,0)" xlink:href="#bT"/><use transform="matrix(0.05,0,0,0.05,97.75000000000001,0)" xlink:href="#bX"/><use transform="matrix(0.05,0,0,0.05,107.75,0)" xlink:href="#cj"/><use transform="matrix(0.05,0,0,0.05,113.7,0)" xlink:href="#bX"/><use transform="matrix(0.05,0,0,0.05,123.7,0)" xlink:href="#ck"/><use transform="matrix(0.05,0,0,0.05,135.70000000000002,0)" xlink:href="#ca"/><use transform="matrix(0.05,0,0,0.05,142.70000000000002,0)" xlink:href="#bZ"/><use transform="matrix(0.05,0,0,0.05,152.70000000000002,0)" xlink:href="#cc"/><use transform="matrix(0.05,0,0,0.05,163.65,0)" xlink:href="#cb"/><use transform="matrix(0.05,0,0,0.05,168.65,0)" xlink:href="#cc"/><use transform="matrix(0.05,0,0,0.05,179.6,0)" xlink:href="#cd"/></g><g id="S"><use transform="matrix(0.05,0,0,0.05,0,0)" xlink:href="#aA"/><use transform="matrix(0.05,0,0,0.05,14.950000000000001,0)" xlink:href="#ay"/><use transform="matrix(0.05,0,0,0.05,25.900000000000002,0)" xlink:href="#aB"/><use transform="matrix(0.05,0,0,0.05,36.85,0)" xlink:href="#av"/><use transform="matrix(0.05,0,0,0.05,46.85,0)" xlink:href="#aC"/></g><g id="T"><use transform="matrix(0.05,0,0,0.05,0,0)" xlink:href="#aJ"/><use transform="matrix(0.05,0,0,0.05,12,0)" xlink:href="#aK"/><use transform="matrix(0.05,0,0,0.05,22,0)" xlink:href="#ar"/><use transform="matrix(0.05,0,0,0.05,32,0)" xlink:href="#aC"/><use transform="matrix(0.05,0,0,0.05,37,0)" xlink:href="#aL"/><use transform="matrix(0.05,0,0,0.05,47.95,0)" xlink:href="#ar"/><use transform="matrix(0.05,0,0,0.05,57.95,0)" xlink:href="#as"/><use transform="matrix(0.05,0,0,0.05,63.900000000000006,0)" xlink:href="#ax"/><use transform="matrix(0.05,0,0,0.05,68.9,0)" xlink:href="#ay"/><use transform="matrix(0.05,0,0,0.05,79.85000000000001,0)" xlink:href="#az"/></g><path fill="#f2f3f5" d="M147 0H94L2-248h55l64 206c17-72 42-137 63-206h54" id="cA"/><path fill="#f2f3f5" d="M133-34C117-15 103 5 69 4 32 3 11-16 11-54c-1-60 55-63 116-61 1-26-3-47-28-47-18 1-26 9-28 27l-52-2c7-38 36-58 82-57s74 22 75 68l1 82c-1 14 12 18 25 15v27c-30 8-71 5-69-32zm-48 3c29 0 43-24 42-57-32 0-66-3-65 30 0 17 8 27 23 27" id="cB"/><path fill="#f2f3f5" d="M25 0v-261h50V0H25" id="cC"/><path fill="#f2f3f5" d="M25-224v-37h50v37H25zM25 0v-190h50V0H25" id="cD"/><path fill="#f2f3f5" d="M88-194c31-1 46 15 58 34l-1-101h50l1 261h-48c-2-10 0-23-3-31C134-8 116 4 84 4 32 4 16-41 15-95c0-56 19-97 73-99zm17 164c33 0 40-30 41-66 1-37-9-64-41-64s-38 30-39 65c0 43 13 65 39 65" id="cE"/><path fill="#f2f3f5" d="M115-3C79 11 28 4 28-45v-112H4v-33h27l15-45h31v45h36v33H77v99c-1 23 16 31 38 25v30" id="cF"/><path fill="#f2f3f5" d="M110-194c64 0 96 36 96 99 0 64-35 99-97 99-61 0-95-36-95-99 0-62 34-99 96-99zm-1 164c35 0 45-28 45-65 0-40-10-65-43-65-34 0-45 26-45 65 0 36 10 65 43 65" id="cG"/><path fill="#f2f3f5" d="M135-194c87-1 58 113 63 194h-50c-7-57 23-157-34-157-59 0-34 97-39 157H25l-1-190h47c2 12-1 28 3 38 12-26 28-41 61-42" id="cH"/><g id="U"><use transform="matrix(0.05,0,0,0.05,0,0)" xlink:href="#cA"/><use transform="matrix(0.05,0,0,0.05,11,0)" xlink:href="#cB"/><use transform="matrix(0.05,0,0,0.05,21,0)" xlink:href="#cC"/><use transform="matrix(0.05,0,0,0.05,26,0)" xlink:href="#cD"/><use transform="matrix(0.05,0,0,0.05,31,0)" xlink:href="#cE"/><use transform="matrix(0.05,0,0,0.05,41.95,0)" xlink:href="#cB"/><use transform="matrix(0.05,0,0,0.05,51.95,0)" xlink:href="#cF"/><use transform="matrix(0.05,0,0,0.05,57.900000000000006,0)" xlink:href="#cD"/><use transform="matrix(0.05,0,0,0.05,62.900000000000006,0)" xlink:href="#cG"/><use transform="matrix(0.05,0,0,0.05,73.85000000000001,0)" xlink:href="#cH"/></g><path fill="#f2f3f5" d="M240-174c0 40-23 61-54 70L253 0h-59l-57-94H76V0H24v-248c93 4 217-23 216 74zM76-134c48-2 112 12 112-38 0-48-66-32-112-35v73" id="cI"/><path fill="#f2f3f5" d="M185-48c-13 30-37 53-82 52C43 2 14-33 14-96s30-98 90-98c62 0 83 45 84 108H66c0 31 8 55 39 56 18 0 30-7 34-22zm-45-69c5-46-57-63-70-21-2 6-4 13-4 21h74" id="cJ"/><path fill="#f2f3f5" d="M137-138c1-29-70-34-71-4 15 46 118 7 119 86 1 83-164 76-172 9l43-7c4 19 20 25 44 25 33 8 57-30 24-41C81-84 22-81 20-136c-2-80 154-74 161-7" id="cK"/><path fill="#f2f3f5" d="M85 4C-2 5 27-109 22-190h50c7 57-23 150 33 157 60-5 35-97 40-157h50l1 190h-47c-2-12 1-28-3-38-12 25-28 42-61 42" id="cL"/><g id="V"><use transform="matrix(0.05,0,0,0.05,0,0)" xlink:href="#cI"/><use transform="matrix(0.05,0,0,0.05,12.950000000000001,0)" xlink:href="#cJ"/><use transform="matrix(0.05,0,0,0.05,22.950000000000003,0)" xlink:href="#cK"/><use transform="matrix(0.05,0,0,0.05,32.95,0)" xlink:href="#cL"/><use transform="matrix(0.05,0,0,0.05,43.900000000000006,0)" xlink:href="#cC"/><use transform="matrix(0.05,0,0,0.05,48.900000000000006,0)" xlink:href="#cF"/><use transform="matrix(0.05,0,0,0.05,54.85,0)" xlink:href="#cK"/></g><path fill="#f2f3f5" d="M67-93c0 74 22 123 53 168H70C40 30 18-18 18-93s22-123 52-168h50c-32 44-53 94-53 168" id="cM"/><path fill="#f2f3f5" d="M25-224v-37h50v37H25zM75 22c2 45-34 59-81 51V38c22 5 31-5 31-27v-201h50V22" id="cN"/><path fill="#f2f3f5" d="M102-93c0 74-22 123-52 168H0C30 29 54-18 53-93c0-74-22-123-53-168h50c30 45 52 94 52 168" id="cO"/><g id="W"><use transform="matrix(0.05,0,0,0.05,0,0)" xlink:href="#cM"/><use transform="matrix(0.05,0,0,0.05,5.95,0)" xlink:href="#cN"/><use transform="matrix(0.05,0,0,0.05,10.95,0)" xlink:href="#cK"/><use transform="matrix(0.05,0,0,0.05,20.95,0)" xlink:href="#cG"/><use transform="matrix(0.05,0,0,0.05,31.899999999999995,0)" xlink:href="#cH"/><use transform="matrix(0.05,0,0,0.05,42.85,0)" xlink:href="#cO"/></g><path fill="#3a414a" d="M230 0l2-204L168 0h-37L68-204 70 0H24v-248h70l56 185 57-185h69V0h-46" id="cP"/><path fill="#3a414a" d="M-4 44V30h207v14H-4" id="cQ"/><g id="X"><use transform="matrix(0.05,0,0,0.05,0,0)" xlink:href="#cP"/><use transform="matrix(0.05,0,0,0.05,14.950000000000001,0)" xlink:href="#bW"/><use transform="matrix(0.05,0,0,0.05,25.900000000000002,0)" xlink:href="#bY"/><use transform="matrix(0.05,0,0,0.05,36.85,0)" xlink:href="#bZ"/><use transform="matrix(0.05,0,0,0.05,46.85,0)" xlink:href="#bV"/><use transform="matrix(0.05,0,0,0.05,51.85,0)" xlink:href="#cQ"/><use transform="matrix(0.05,0,0,0.05,61.85,0)" xlink:href="#cz"/><use transform="matrix(0.05,0,0,0.05,72.85,0)" xlink:href="#bX"/><use transform="matrix(0.05,0,0,0.05,82.85,0)" xlink:href="#bV"/><use transform="matrix(0.05,0,0,0.05,87.85,0)" xlink:href="#cg"/><use transform="matrix(0.05,0,0,0.05,92.85,0)" xlink:href="#bY"/><use transform="matrix(0.05,0,0,0.05,103.80000000000001,0)" xlink:href="#bX"/><use transform="matrix(0.05,0,0,0.05,113.80000000000001,0)" xlink:href="#cj"/><use transform="matrix(0.05,0,0,0.05,119.75,0)" xlink:href="#cg"/><use transform="matrix(0.05,0,0,0.05,124.75,0)" xlink:href="#bW"/><use transform="matrix(0.05,0,0,0.05,135.7,0)" xlink:href="#ch"/><use transform="matrix(0.05,0,0,0.05,146.64999999999998,0)" xlink:href="#cb"/><use transform="matrix(0.05,0,0,0.05,151.64999999999998,0)" xlink:href="#cc"/><use transform="matrix(0.05,0,0,0.05,162.59999999999997,0)" xlink:href="#cd"/></g><g id="Y"><use transform="matrix(0.05,0,0,0.05,0,0)" xlink:href="#aO"/><use transform="matrix(0.05,0,0,0.05,12.950000000000001,0)" xlink:href="#aw"/><use transform="matrix(0.05,0,0,0.05,23.900000000000002,0)" xlink:href="#aC"/><use transform="matrix(0.05,0,0,0.05,28.900000000000002,0)" xlink:href="#ay"/><use transform="matrix(0.05,0,0,0.05,39.85,0)" xlink:href="#ar"/><use transform="matrix(0.05,0,0,0.05,49.85,0)" xlink:href="#aB"/></g><g id="Z"><use transform="matrix(0.05,0,0,0.05,0,0)" xlink:href="#ax"/><use transform="matrix(0.05,0,0,0.05,5,0)" xlink:href="#aN"/><use transform="matrix(0.05,0,0,0.05,21,0)" xlink:href="#ar"/><use transform="matrix(0.05,0,0,0.05,31,0)" xlink:href="#aE"/><use transform="matrix(0.05,0,0,0.05,41.95,0)" xlink:href="#av"/></g><path fill="#fff" d="M249-155c45 1 62 31 62 79-1 48-18 79-63 79s-61-32-62-79c0-48 16-79 63-79zM97 0H61l162-248h36zM9-172c0-48 16-79 63-78 46 0 62 31 62 78 0 48-18 79-63 79S9-124 9-172zM249-25c24 0 24-26 24-51 0-26-1-52-24-52-24 0-25 26-25 52 0 25 0 51 25 51zM71-120c23 0 24-25 24-52 0-26 0-51-23-51-25 0-25 25-25 51 0 27 1 52 24 52" id="cR"/><use transform="matrix(0.05,0,0,0.05,0,0)" xlink:href="#cR" id="aa"/><path fill="#fff" d="M15-22v-40l146-57-146-57v-40l181 69v56" id="cS"/><use transform="matrix(0.05,0,0,0.05,0,0)" xlink:href="#cS" id="ab"/><path fill="#fff" d="M165-50V0h-47v-50H5v-38l105-160h55v161h33v37h-33zm-47-37l2-116L46-87h72" id="cT"/><path fill="#fff" d="M101-251c68 0 84 54 84 127C185-50 166 4 99 4S15-52 14-124c-1-75 17-127 87-127zm-1 216c37-5 36-46 36-89s4-89-36-89c-39 0-36 45-36 89 0 43-3 85 36 89" id="cU"/><g id="ac"><use transform="matrix(0.05,0,0,0.05,0,0)" xlink:href="#cT"/><use transform="matrix(0.05,0,0,0.05,10,0)" xlink:href="#cU"/></g><path fill="#3a414a" d="M30-248c87 1 191-15 191 75 0 78-77 80-158 76V0H30v-248zm33 125c57 0 124 11 124-50 0-59-68-47-124-48v98" id="cV"/><path fill="#3a414a" d="M114-163C36-179 61-72 57 0H25l-1-190h30c1 12-1 29 2 39 6-27 23-49 58-41v29" id="cW"/><path fill="#3a414a" d="M100-194c63 0 86 42 84 106H49c0 40 14 67 53 68 26 1 43-12 49-29l28 8c-11 28-37 45-77 45C44 4 14-33 15-96c1-61 26-98 85-98zm52 81c6-60-76-77-97-28-3 7-6 17-6 28h103" id="cX"/><path fill="#3a414a" d="M85-194c31 0 48 13 60 33l-1-100h32l1 261h-30c-2-10 0-23-3-31C134-8 116 4 85 4 32 4 16-35 15-94c0-66 23-100 70-100zm9 24c-40 0-46 34-46 75 0 40 6 74 45 74 42 0 51-32 51-76 0-42-9-74-50-73" id="cY"/><path fill="#3a414a" d="M24-231v-30h32v30H24zM24 0v-190h32V0H24" id="cZ"/><path fill="#3a414a" d="M96-169c-40 0-48 33-48 73s9 75 48 75c24 0 41-14 43-38l32 2c-6 37-31 61-74 61-59 0-76-41-82-99-10-93 101-131 147-64 4 7 5 14 7 22l-32 3c-4-21-16-35-41-35" id="da"/><path fill="#3a414a" d="M59-47c-2 24 18 29 38 22v24C64 9 27 4 27-40v-127H5v-23h24l9-43h21v43h35v23H59v120" id="db"/><path fill="#3a414a" d="M-5 72V49h209v23H-5" id="dc"/><path fill="#3a414a" d="M160-131c35 5 61 23 61 61C221 17 115-2 30 0v-248c76 3 177-17 177 60 0 33-19 50-47 57zm-97-11c50-1 110 9 110-42 0-47-63-36-110-37v79zm0 115c55-2 124 14 124-45 0-56-70-42-124-44v89" id="dd"/><path fill="#3a414a" d="M33 0v-38h34V0H33" id="de"/><path fill="#3a414a" d="M115-194c55 1 70 41 70 98S169 2 115 4C84 4 66-9 55-30l1 105H24l-1-265h31l2 30c10-21 28-34 59-34zm-8 174c40 0 45-34 45-75s-6-73-45-74c-42 0-51 32-51 76 0 43 10 73 51 73" id="df"/><path fill="#3a414a" d="M179-190L93 31C79 59 56 82 12 73V49c39 6 53-20 64-50L1-190h34L92-34l54-156h33" id="dg"/><g id="ad"><use transform="matrix(0.05,0,0,0.05,0,0)" xlink:href="#cV"/><use transform="matrix(0.05,0,0,0.05,12,0)" xlink:href="#cW"/><use transform="matrix(0.05,0,0,0.05,17.95,0)" xlink:href="#cX"/><use transform="matrix(0.05,0,0,0.05,27.950000000000003,0)" xlink:href="#cY"/><use transform="matrix(0.05,0,0,0.05,37.95,0)" xlink:href="#cZ"/><use transform="matrix(0.05,0,0,0.05,41.900000000000006,0)" xlink:href="#da"/><use transform="matrix(0.05,0,0,0.05,50.900000000000006,0)" xlink:href="#db"/><use transform="matrix(0.05,0,0,0.05,55.900000000000006,0)" xlink:href="#dc"/><use transform="matrix(0.05,0,0,0.05,65.9,0)" xlink:href="#dd"/><use transform="matrix(0.05,0,0,0.05,77.9,0)" xlink:href="#cW"/><use transform="matrix(0.05,0,0,0.05,83.85000000000001,0)" xlink:href="#cX"/><use transform="matrix(0.05,0,0,0.05,93.85000000000001,0)" xlink:href="#cX"/><use transform="matrix(0.05,0,0,0.05,103.85000000000001,0)" xlink:href="#cY"/><use transform="matrix(0.05,0,0,0.05,113.85000000000001,0)" xlink:href="#de"/><use transform="matrix(0.05,0,0,0.05,118.85000000000001,0)" xlink:href="#df"/><use transform="matrix(0.05,0,0,0.05,128.85000000000002,0)" xlink:href="#dg"/></g><path fill="#3a414a" d="M146-102V0H94v-102L6-248h54l60 105 60-105h54" id="dh"/><g id="ae"><use transform="matrix(0.05,0,0,0.05,0,0)" xlink:href="#dh"/><use transform="matrix(0.05,0,0,0.05,11,0)" xlink:href="#bZ"/><use transform="matrix(0.05,0,0,0.05,21,0)" xlink:href="#ci"/></g><g id="af"><use transform="matrix(0.05,0,0,0.05,0,0)" xlink:href="#at"/><use transform="matrix(0.05,0,0,0.05,12,0)" xlink:href="#au"/><use transform="matrix(0.05,0,0,0.05,19,0)" xlink:href="#av"/><use transform="matrix(0.05,0,0,0.05,29,0)" xlink:href="#aB"/><use transform="matrix(0.05,0,0,0.05,39.95,0)" xlink:href="#ax"/><use transform="matrix(0.05,0,0,0.05,44.95,0)" xlink:href="#aT"/><use transform="matrix(0.05,0,0,0.05,54.95,0)" xlink:href="#as"/><use transform="matrix(0.05,0,0,0.05,60.900000000000006,0)" xlink:href="#av"/><use transform="matrix(0.05,0,0,0.05,70.9,0)" xlink:href="#aB"/></g><path fill="#fff" d="M182-130c37 4 62 22 62 59C244 23 116-4 24 0v-248c84 5 203-23 205 63 0 31-19 50-47 55zM76-148c40-3 101 13 101-30 0-44-60-28-101-31v61zm0 110c48-3 116 14 116-37 0-48-69-32-116-35v72" id="di"/><g id="ag"><use transform="matrix(0.05,0,0,0.05,0,0)" xlink:href="#di"/><use transform="matrix(0.05,0,0,0.05,12.950000000000001,0)" xlink:href="#au"/><use transform="matrix(0.05,0,0,0.05,19.950000000000003,0)" xlink:href="#av"/><use transform="matrix(0.05,0,0,0.05,29.950000000000003,0)" xlink:href="#av"/><use transform="matrix(0.05,0,0,0.05,39.95,0)" xlink:href="#aB"/></g><g id="ah"><use transform="matrix(0.05,0,0,0.05,0,0)" xlink:href="#az"/><use transform="matrix(0.05,0,0,0.05,10.950000000000001,0)" xlink:href="#ar"/><use transform="matrix(0.05,0,0,0.05,20.950000000000003,0)" xlink:href="#aN"/><use transform="matrix(0.05,0,0,0.05,36.95,0)" xlink:href="#av"/></g><g id="ai"><use transform="matrix(0.05,0,0,0.05,0,0)" xlink:href="#ar"/><use transform="matrix(0.05,0,0,0.05,10,0)" xlink:href="#az"/><use transform="matrix(0.05,0,0,0.05,20.950000000000003,0)" xlink:href="#aB"/></g><use transform="matrix(0.05,0,0,0.05,0,0)" xlink:href="#cR" id="aj"/><path fill="#3a414a" d="M175 0L67-191c6 58 2 128 3 191H24v-248h59L193-55c-6-58-2-129-3-193h46V0h-61" id="dj"/><g id="ak"><use transform="matrix(0.05,0,0,0.05,0,0)" xlink:href="#dj"/><use transform="matrix(0.05,0,0,0.05,12.950000000000001,0)" xlink:href="#bW"/></g><g id="al"><use transform="matrix(0.05,0,0,0.05,0,0)" xlink:href="#aG"/><use transform="matrix(0.05,0,0,0.05,12.950000000000001,0)" xlink:href="#ar"/><use transform="matrix(0.05,0,0,0.05,22.950000000000003,0)" xlink:href="#az"/><use transform="matrix(0.05,0,0,0.05,33.900000000000006,0)" xlink:href="#az"/><use transform="matrix(0.05,0,0,0.05,44.85000000000001,0)" xlink:href="#ay"/><use transform="matrix(0.05,0,0,0.05,55.80000000000001,0)" xlink:href="#as"/></g><g id="am"><use transform="matrix(0.05,0,0,0.05,0,0)" xlink:href="#aP"/><use transform="matrix(0.05,0,0,0.05,5,0)" xlink:href="#aB"/><use transform="matrix(0.05,0,0,0.05,15.950000000000001,0)" xlink:href="#av"/><use transform="matrix(0.05,0,0,0.05,25.950000000000003,0)" xlink:href="#az"/><use transform="matrix(0.05,0,0,0.05,36.900000000000006,0)" xlink:href="#as"/><use transform="matrix(0.05,0,0,0.05,42.85000000000001,0)" xlink:href="#ax"/><use transform="matrix(0.05,0,0,0.05,47.85000000000001,0)" xlink:href="#aS"/><use transform="matrix(0.05,0,0,0.05,53.80000000000001,0)" xlink:href="#aV"/></g><g id="an"><use transform="matrix(0.05,0,0,0.05,0,0)" xlink:href="#di"/><use transform="matrix(0.05,0,0,0.05,12.950000000000001,0)" xlink:href="#au"/><use transform="matrix(0.05,0,0,0.05,19.950000000000003,0)" xlink:href="#av"/><use transform="matrix(0.05,0,0,0.05,29.950000000000003,0)" xlink:href="#av"/><use transform="matrix(0.05,0,0,0.05,39.95,0)" xlink:href="#aB"/></g><g id="ao"><use transform="matrix(0.05,0,0,0.05,0,0)" xlink:href="#aM"/><use transform="matrix(0.05,0,0,0.05,12,0)" xlink:href="#aL"/><use transform="matrix(0.05,0,0,0.05,22.950000000000003,0)" xlink:href="#aN"/><use transform="matrix(0.05,0,0,0.05,38.95,0)" xlink:href="#aN"/><use transform="matrix(0.05,0,0,0.05,54.95,0)" xlink:href="#ar"/><use transform="matrix(0.05,0,0,0.05,64.95,0)" xlink:href="#au"/><use transform="matrix(0.05,0,0,0.05,71.95,0)" xlink:href="#aV"/></g><g id="ap"><use transform="matrix(0.05,0,0,0.05,0,0)" xlink:href="#aw"/><use transform="matrix(0.05,0,0,0.05,10.950000000000001,0)" xlink:href="#ar"/><use transform="matrix(0.05,0,0,0.05,20.950000000000003,0)" xlink:href="#aE"/><use transform="matrix(0.05,0,0,0.05,31.900000000000006,0)" xlink:href="#av"/></g></defs></g></svg>